{"glyphs":{"0":{"ha":921,"x_min":42,"x_max":875,"o":"m 458 -8 q 283 28 360 -8 q 152 132 206 64 q 70 298 99 200 q 42 521 42 396 q 70 743 42 644 q 152 910 99 842 q 283 1014 206 978 q 458 1050 360 1050 q 633 1014 556 1050 q 764 910 710 978 q 847 743 818 842 q 875 521 875 644 q 847 298 875 396 q 764 132 818 200 q 633 28 710 64 q 458 -8 556 -8 m 458 953 q 221 842 303 953 q 139 521 139 731 q 221 199 139 310 q 458 88 303 88 q 696 199 614 88 q 778 521 778 310 q 696 842 778 731 q 458 953 614 953 z "},"1":{"ha":371,"x_min":100,"x_max":271,"o":"m 242 1038 q 271 993 271 1024 l 271 0 l 174 0 l 174 882 l 100 813 l 100 946 l 190 1028 q 215 1041 201 1039 q 242 1038 229 1043 z "},"2":{"ha":876,"x_min":67,"x_max":817,"o":"m 458 436 q 333 384 386 410 q 244 321 281 358 q 189 231 208 283 q 165 97 169 178 l 807 97 l 778 0 l 115 0 q 81 15 96 0 q 67 49 67 29 q 93 250 67 171 q 167 381 119 329 q 281 466 215 433 q 425 526 346 499 q 562 579 506 556 q 653 628 618 603 q 705 685 689 654 q 721 761 721 717 q 692 861 721 824 q 620 919 663 899 q 529 947 578 940 q 442 953 481 953 q 354 947 403 953 q 263 919 306 940 q 192 861 221 899 q 164 761 164 824 l 67 761 q 165 974 67 897 q 442 1050 264 1050 q 718 974 619 1050 q 817 761 817 897 q 788 637 817 688 q 710 550 758 586 q 596 488 661 514 q 458 436 531 461 z "},"3":{"ha":914,"x_min":39,"x_max":872,"o":"m 701 569 q 828 463 785 531 q 872 304 872 396 q 844 173 872 231 q 761 75 815 115 q 630 13 707 35 q 456 -8 553 -8 q 238 26 329 -8 q 94 129 146 61 q 39 304 39 201 l 136 304 q 171 188 136 235 q 281 113 207 139 q 456 88 354 88 q 556 95 500 88 q 660 126 611 103 q 742 191 708 149 q 775 304 775 233 q 748 417 775 375 q 679 483 721 460 q 588 513 638 506 q 493 519 538 519 l 464 617 q 549 622 501 617 q 638 645 596 628 q 707 696 679 663 q 735 785 735 729 q 707 872 735 839 q 638 924 679 906 q 549 947 596 942 q 464 953 501 953 q 379 947 426 953 q 290 924 332 942 q 221 872 249 906 q 193 785 193 839 l 96 785 q 193 980 96 910 q 464 1050 290 1050 q 735 980 638 1050 q 832 785 832 910 q 701 569 832 638 z "},"4":{"ha":908,"x_min":42,"x_max":811,"o":"m 697 0 l 601 0 l 601 251 l 90 251 q 56 266 71 251 q 42 300 42 281 l 42 313 q 53 343 42 329 l 613 1024 q 665 1038 633 1049 q 689 1020 681 1032 q 697 993 697 1008 l 697 349 l 811 349 l 782 251 l 697 251 l 697 0 m 182 349 l 601 349 l 601 857 l 182 349 z "},"5":{"ha":869,"x_min":42,"x_max":817,"o":"m 433 617 q 717 534 618 617 q 817 304 817 451 q 717 74 817 157 q 433 -8 618 -8 q 228 26 314 -8 q 93 131 142 61 q 42 304 42 203 l 139 304 q 172 186 139 233 q 273 113 206 139 q 433 88 340 88 q 526 95 475 88 q 622 126 576 103 q 697 191 667 149 q 728 304 728 233 q 697 417 728 375 q 622 483 667 460 q 526 513 576 506 q 433 519 475 519 l 132 519 q 94 538 108 519 q 85 579 78 556 l 181 1003 q 197 1030 183 1019 q 228 1040 210 1040 l 788 1040 l 758 944 l 267 944 l 192 617 l 433 617 l 433 617 z "},"6":{"ha":997,"x_min":71,"x_max":935,"o":"m 503 -8 q 321 17 401 -8 q 185 89 240 42 q 100 204 129 136 q 71 358 71 272 l 71 636 q 101 810 71 733 q 188 940 131 888 q 326 1022 244 993 q 513 1050 408 1050 q 797 972 683 1050 l 742 892 q 513 953 653 953 q 404 942 464 953 q 292 897 344 931 q 203 801 239 864 q 168 636 168 739 l 168 613 q 308 697 224 668 q 503 726 393 726 q 685 701 604 726 q 821 629 765 676 q 906 513 876 582 q 935 358 935 444 q 906 204 935 272 q 821 89 876 136 q 685 17 765 42 q 503 -8 604 -8 m 503 629 q 397 620 456 629 q 288 583 339 611 q 203 501 238 554 q 168 358 168 447 q 184 257 168 300 q 227 184 200 214 q 289 135 254 154 q 360 106 324 117 q 434 91 397 94 q 503 88 471 88 q 608 97 550 88 q 717 135 665 106 q 803 217 768 164 q 838 358 838 271 q 803 501 838 447 q 717 583 768 554 q 608 620 665 611 q 503 629 550 629 z "},"7":{"ha":901,"x_min":42,"x_max":854,"o":"m 276 0 l 164 0 l 713 943 l 71 943 l 42 1040 l 797 1040 q 839 1017 826 1040 q 839 968 854 992 l 276 0 z "},"8":{"ha":914,"x_min":39,"x_max":872,"o":"m 701 569 q 828 463 785 531 q 872 304 872 396 q 844 173 872 231 q 762 75 815 115 q 631 13 708 35 q 456 -8 553 -8 q 280 13 357 -8 q 149 75 203 35 q 67 173 96 115 q 39 304 39 231 q 85 467 39 399 q 219 574 132 535 q 96 785 96 642 q 193 980 96 910 q 464 1050 290 1050 q 735 980 638 1050 q 832 785 832 910 q 701 569 832 638 m 464 953 q 379 947 426 953 q 290 924 332 942 q 221 872 249 906 q 193 785 193 839 q 221 696 193 729 q 290 645 249 663 q 379 622 332 628 q 464 617 426 617 q 549 622 501 617 q 638 645 596 628 q 708 696 679 663 q 736 785 736 729 q 708 872 736 839 q 638 924 679 906 q 549 947 596 942 q 464 953 501 953 m 456 88 q 556 95 500 88 q 660 126 611 103 q 742 191 708 149 q 775 304 775 233 q 742 417 775 375 q 660 483 708 460 q 556 513 611 506 q 456 519 500 519 q 356 513 411 519 q 251 483 300 506 q 169 417 203 460 q 136 304 136 375 q 169 191 136 233 q 251 126 203 149 q 356 95 300 103 q 456 88 411 88 z "},"9":{"ha":997,"x_min":71,"x_max":935,"o":"m 503 1050 q 685 1025 604 1050 q 821 953 765 1000 q 906 837 876 906 q 935 682 935 768 l 935 404 q 905 231 935 307 q 818 101 875 154 q 679 19 761 47 q 493 -8 597 -8 q 208 69 322 -8 l 264 149 q 493 88 353 88 q 601 99 542 88 q 714 143 661 110 q 802 239 767 176 q 838 404 838 301 l 838 429 q 697 344 782 374 q 503 315 613 315 q 321 340 401 315 q 185 413 240 365 q 100 528 129 460 q 71 682 71 596 q 100 837 71 768 q 185 953 129 906 q 321 1025 240 1000 q 503 1050 401 1050 m 503 411 q 608 420 550 411 q 717 458 665 429 q 803 541 768 488 q 838 682 838 594 q 803 824 838 771 q 717 906 768 878 q 608 944 665 935 q 503 953 550 953 q 397 944 456 953 q 288 906 339 935 q 203 824 238 878 q 168 682 168 771 q 184 581 168 624 q 227 508 200 538 q 289 459 254 478 q 360 429 324 440 q 434 415 397 418 q 503 411 471 411 z "}," ":{"ha":594,"x_min":0,"x_max":0,"o":""},"M":{"ha":1272,"x_min":125,"x_max":1163,"o":"m 1163 0 l 1065 0 l 1065 828 l 685 200 q 667 183 678 189 q 643 176 656 176 q 601 200 617 176 l 222 828 l 222 0 l 125 0 l 125 1001 q 160 1047 125 1038 q 191 1047 175 1053 q 215 1026 207 1040 l 643 318 l 1072 1026 q 1096 1047 1081 1040 q 1126 1047 1111 1053 q 1152 1031 1142 1043 q 1163 1001 1163 1018 l 1163 0 z "},"¡":{"ha":314,"x_min":97,"x_max":214,"o":"m 107 608 l 107 739 l 204 739 l 204 608 l 107 608 m 214 -303 l 97 -303 l 107 218 l 126 488 l 185 488 l 204 218 l 214 -303 z "},"ȷ":{"ha":332,"x_min":-1,"x_max":215,"o":"m 215 739 l 215 49 q 104 -307 215 -171 l 74 -344 l -1 -283 l 29 -246 q 118 49 118 -136 l 118 739 l 215 739 z "},"x":{"ha":735,"x_min":40,"x_max":692,"o":"m 365 300 l 158 0 l 40 0 l 307 385 l 61 739 l 179 739 l 365 469 l 553 739 l 669 739 l 425 385 l 692 0 l 574 0 l 365 300 l 365 300 z "},"A":{"ha":1183,"x_min":43,"x_max":1138,"o":"m 890 281 l 288 281 l 153 0 l 43 0 l 546 1022 q 589 1050 560 1050 q 632 1022 618 1050 l 1138 0 l 1031 0 l 890 281 m 843 378 l 589 892 l 335 378 l 843 378 z "}," ":{"ha":575,"x_min":0,"x_max":0,"o":"z "},"H":{"ha":985,"x_min":125,"x_max":878,"o":"m 781 1040 l 878 1040 l 878 0 l 781 0 l 781 522 l 222 522 l 222 0 l 125 0 l 125 1040 l 222 1040 l 222 619 l 781 619 l 781 1040 l 781 1040 z "},"I":{"ha":351,"x_min":125,"x_max":222,"o":"m 125 1040 l 222 1040 l 222 0 l 125 0 l 125 1040 l 125 1040 z "},"d":{"ha":901,"x_min":42,"x_max":801,"o":"m 42 372 q 142 653 42 553 q 422 753 242 753 q 585 726 514 753 q 706 649 657 699 l 706 1081 l 801 1081 l 801 372 q 701 93 801 193 q 422 -7 601 -7 q 142 93 242 -7 q 42 372 42 193 m 139 372 q 211 162 139 235 q 422 89 283 89 q 633 162 560 89 q 706 372 706 235 q 633 583 706 511 q 422 656 560 656 q 211 583 283 656 q 139 372 139 511 z "},"p":{"ha":901,"x_min":100,"x_max":860,"o":"m 481 753 q 760 653 660 753 q 860 374 860 553 q 760 93 860 193 q 481 -7 660 -7 q 317 20 389 -7 q 197 99 246 47 l 197 -306 l 100 -276 l 100 374 q 200 653 100 553 q 481 753 300 753 m 481 90 q 691 163 618 90 q 764 374 764 235 q 691 584 764 511 q 481 657 618 657 q 269 584 342 657 q 197 374 197 511 q 269 163 197 235 q 481 90 342 90 z "},"q":{"ha":921,"x_min":47,"x_max":807,"o":"m 47 374 q 147 653 47 553 q 428 753 247 753 q 707 653 607 753 q 807 374 807 553 l 807 -306 l 711 -276 l 711 99 q 591 20 663 47 q 428 -7 519 -7 q 147 93 247 -7 q 47 374 47 193 m 144 374 q 217 163 144 235 q 428 90 289 90 q 638 163 565 90 q 711 374 711 235 q 638 584 711 511 q 428 657 565 657 q 217 584 289 657 q 144 374 144 511 z "},"B":{"ha":972,"x_min":125,"x_max":924,"o":"m 763 581 q 879 469 835 540 q 924 310 924 397 q 900 191 924 247 q 835 93 876 135 q 738 26 793 51 q 621 0 683 1 l 174 0 q 140 15 154 0 q 125 49 125 29 l 125 993 q 140 1026 125 1013 q 174 1040 154 1040 l 599 1040 q 699 1020 653 1040 q 781 965 746 1000 q 837 883 817 929 q 857 782 857 836 q 832 669 857 721 q 763 581 807 617 m 222 619 l 599 619 q 662 632 632 619 q 713 667 692 644 q 748 719 735 689 q 761 782 761 749 q 748 845 761 815 q 713 897 735 875 q 662 931 692 918 q 599 944 632 944 l 222 944 l 222 619 m 614 97 q 696 114 657 97 q 764 159 735 131 q 810 226 793 188 q 826 310 826 265 q 810 392 826 353 q 764 460 793 431 q 696 506 735 489 q 614 522 657 522 l 222 522 l 222 97 l 614 97 z "},"C":{"ha":1010,"x_min":44,"x_max":958,"o":"m 958 126 q 574 -8 817 -8 q 351 28 449 -8 q 185 132 253 64 q 81 298 117 200 q 44 521 44 396 q 81 743 44 644 q 185 910 117 842 q 351 1014 253 978 q 574 1050 449 1050 q 917 949 782 1050 l 858 871 q 574 953 749 953 q 252 842 363 953 q 142 521 142 731 q 252 199 142 310 q 574 88 363 88 q 754 115 674 88 q 890 197 835 143 l 958 126 z "},"D":{"ha":1004,"x_min":125,"x_max":953,"o":"m 425 0 l 174 0 q 140 15 154 0 q 125 49 125 29 l 125 993 q 140 1026 125 1013 q 174 1040 154 1040 l 433 1040 q 652 1005 556 1040 q 815 903 749 969 q 917 740 882 836 q 953 521 953 643 q 916 304 953 400 q 810 140 879 208 q 644 36 742 72 q 425 0 547 0 m 222 97 l 425 97 q 744 208 632 97 q 856 521 856 318 q 747 836 856 728 q 433 944 639 944 l 222 944 l 222 97 z "},"E":{"ha":767,"x_min":69,"x_max":725,"o":"m 167 944 l 167 619 l 622 619 l 593 522 l 167 522 l 167 97 l 725 97 l 725 0 l 118 0 q 84 15 99 0 q 69 49 69 29 l 69 993 q 84 1026 69 1013 q 118 1040 99 1040 l 725 1040 l 725 944 l 167 944 z "},"F":{"ha":799,"x_min":100,"x_max":756,"o":"m 197 944 l 197 619 l 653 619 l 624 522 l 197 522 l 197 0 l 100 0 l 100 993 q 115 1026 100 1013 q 149 1040 129 1040 l 756 1040 l 756 944 l 197 944 z "},"G":{"ha":1081,"x_min":39,"x_max":967,"o":"m 967 569 l 967 163 q 953 126 967 143 q 568 -8 811 -8 q 345 28 443 -8 q 179 132 247 64 q 75 298 111 200 q 39 521 39 396 q 75 743 39 644 q 179 910 111 842 q 345 1014 247 978 q 568 1050 443 1050 q 911 949 776 1050 l 853 871 q 568 953 743 953 q 247 842 357 953 q 136 521 136 731 q 247 199 136 310 q 568 88 357 88 q 869 183 758 88 l 869 540 l 967 569 z "},"J":{"ha":319,"x_min":0,"x_max":215,"o":"m 75 -344 l 0 -283 l 31 -246 q 119 49 119 -136 l 119 1040 l 215 1040 l 215 49 q 106 -307 215 -172 l 75 -344 z "},"K":{"ha":901,"x_min":125,"x_max":861,"o":"m 861 1040 l 408 564 l 861 1 l 736 1 l 342 493 l 222 368 l 222 0 l 125 0 l 125 1040 l 222 1040 l 222 508 l 728 1040 l 861 1040 l 861 1040 z "},"L":{"ha":869,"x_min":125,"x_max":810,"o":"m 810 97 l 781 0 l 174 0 q 140 15 154 0 q 125 49 125 29 l 125 1040 l 222 1040 l 222 97 l 810 97 z "},"N":{"ha":997,"x_min":125,"x_max":894,"o":"m 846 -8 q 807 13 821 -8 l 222 847 l 222 0 l 125 0 l 125 1001 q 134 1030 125 1017 q 158 1047 143 1043 q 189 1047 174 1053 q 213 1029 204 1042 l 799 193 l 799 1040 l 894 1040 l 894 40 q 885 11 894 24 q 861 -7 876 -1 q 846 -8 856 -8 z "},"O":{"ha":1144,"x_min":39,"x_max":1097,"o":"m 568 -8 q 345 28 443 -8 q 179 132 247 64 q 75 298 111 200 q 39 521 39 396 q 75 743 39 644 q 179 910 111 842 q 345 1014 247 978 q 568 1050 443 1050 q 791 1014 693 1050 q 957 910 889 978 q 1061 743 1025 842 q 1097 521 1097 644 q 1061 298 1097 396 q 957 132 1025 200 q 791 28 889 64 q 568 -8 693 -8 m 568 953 q 247 842 357 953 q 136 521 136 731 q 247 199 136 310 q 568 88 357 88 q 890 199 779 88 q 1000 521 1000 310 q 890 842 1000 731 q 568 953 779 953 z "},"P":{"ha":940,"x_min":94,"x_max":893,"o":"m 590 1040 q 708 1015 653 1039 q 804 949 763 990 q 869 851 846 907 q 893 732 893 794 q 869 612 893 668 q 802 513 844 556 q 703 447 760 471 q 583 422 647 422 l 192 422 l 192 0 l 94 0 l 94 993 q 109 1026 94 1013 q 143 1040 124 1040 l 588 1040 l 590 1040 m 583 518 q 665 535 626 518 q 733 581 704 551 q 779 649 763 610 q 796 732 796 688 q 779 814 796 775 q 733 882 763 853 q 665 928 704 911 q 583 944 626 944 l 192 944 l 192 518 l 583 518 z "},"Q":{"ha":1151,"x_min":46,"x_max":1104,"o":"m 1006 0 l 858 54 q 575 -8 742 -8 q 241 85 372 -8 q 65 350 110 178 l 60 353 l 63 363 q 46 521 46 435 q 82 743 46 644 q 186 910 118 842 q 352 1014 254 978 q 575 1050 450 1050 q 798 1014 700 1050 q 964 910 896 978 q 1068 743 1032 842 q 1104 521 1104 644 q 1066 290 1104 390 q 954 122 1028 190 l 1104 67 l 1006 0 m 575 953 q 253 842 364 953 q 143 521 143 731 q 144 470 143 494 q 150 422 146 446 l 849 161 q 1007 521 1007 269 q 897 842 1007 731 q 575 953 786 953 m 575 88 q 652 92 615 88 q 722 106 689 97 l 182 307 q 328 143 229 199 q 575 88 428 88 z "},"R":{"ha":972,"x_min":97,"x_max":976,"o":"m 851 0 l 514 419 l 194 419 l 194 0 l 97 0 l 97 990 q 112 1024 97 1010 q 146 1039 126 1039 l 590 1039 l 593 1039 q 710 1013 656 1038 q 807 946 765 988 q 872 848 849 904 q 896 729 896 792 q 876 619 896 671 q 820 527 856 568 q 738 459 785 486 q 635 424 690 432 l 976 0 l 851 0 m 194 517 l 586 517 q 668 533 629 517 q 736 579 707 550 q 782 647 765 608 q 799 729 799 685 q 782 813 799 774 q 736 880 765 851 q 668 925 707 908 q 586 942 629 942 l 194 942 l 194 517 z "},"S":{"ha":844,"x_min":44,"x_max":796,"o":"m 431 567 q 563 535 497 553 q 681 488 629 518 q 764 408 732 457 q 796 279 796 358 q 697 67 796 143 q 419 -8 597 -8 q 143 67 242 -8 q 44 279 44 143 l 142 279 q 170 179 142 217 q 241 121 199 142 q 332 94 283 100 q 419 88 381 88 q 507 94 458 88 q 598 121 556 100 q 669 179 640 142 q 699 279 699 217 q 685 351 699 322 q 638 401 671 381 q 549 439 604 422 q 410 472 493 456 q 277 503 343 486 q 160 551 211 521 q 76 632 108 582 q 44 761 44 682 q 143 974 44 897 q 419 1050 242 1050 q 697 974 597 1050 q 796 761 796 897 l 699 761 q 669 861 699 824 q 598 919 640 899 q 507 947 556 940 q 419 953 458 953 q 332 947 381 953 q 241 919 283 940 q 170 861 199 899 q 142 761 142 824 q 156 689 142 718 q 205 638 171 660 q 294 600 239 617 q 431 567 349 583 z "},"T":{"ha":844,"x_min":42,"x_max":794,"o":"m 42 1040 l 794 1040 l 794 944 l 467 944 l 467 0 l 369 0 l 369 944 l 42 944 l 42 1040 l 42 1040 z "},"U":{"ha":889,"x_min":72,"x_max":824,"o":"m 824 1040 l 824 279 q 724 67 824 143 q 447 -8 625 -8 q 171 67 269 -8 q 72 279 72 143 l 72 1040 l 169 1040 l 169 279 q 198 179 169 217 q 269 121 226 142 q 360 94 311 100 q 447 88 408 88 q 535 94 486 88 q 626 121 583 100 q 697 179 668 142 q 726 279 726 217 l 726 1040 l 824 1040 z "},"V":{"ha":1074,"x_min":42,"x_max":1035,"o":"m 539 -8 q 512 -1 524 -8 q 494 19 500 7 l 42 1040 l 150 1040 l 539 160 l 929 1040 l 1035 1040 l 583 19 q 539 -8 569 -8 z "},"W":{"ha":1560,"x_min":42,"x_max":1515,"o":"m 1515 1040 l 1064 19 q 1019 -8 1050 -8 q 975 19 989 -8 l 779 463 l 583 19 q 539 -8 569 -8 q 512 -1 524 -8 q 494 19 500 7 l 42 1040 l 150 1040 l 539 160 l 726 582 l 639 775 l 747 775 l 1019 160 l 1410 1040 l 1515 1040 z "},"X":{"ha":990,"x_min":42,"x_max":943,"o":"m 493 482 l 160 0 l 42 0 l 433 567 l 104 1040 l 222 1040 l 493 651 l 764 1040 l 882 1040 l 551 567 l 943 0 l 826 0 l 493 482 l 493 482 z "},"Y":{"ha":990,"x_min":42,"x_max":943,"o":"m 943 1040 l 540 460 l 540 0 l 444 0 l 444 464 l 42 1040 l 160 1040 l 493 560 l 825 1040 l 943 1040 l 943 1040 z "},"Z":{"ha":742,"x_min":32,"x_max":706,"o":"m 668 0 l 90 0 q 49 25 63 0 q 49 74 32 49 l 564 944 l 71 944 l 71 1040 l 649 1040 q 692 1017 679 1040 q 690 968 706 992 l 175 97 l 668 97 l 668 0 z "},"l":{"ha":346,"x_min":125,"x_max":222,"o":"m 222 0 l 125 0 l 125 1082 l 222 1082 l 222 0 l 222 0 z "},"a":{"ha":882,"x_min":39,"x_max":800,"o":"m 419 754 q 700 653 600 754 q 800 374 800 553 l 800 207 q 789 147 800 183 q 738 76 778 110 q 624 17 699 42 q 419 -7 549 -7 q 215 17 290 -7 q 101 76 140 42 q 50 147 61 110 q 39 207 39 183 q 65 340 39 292 q 136 413 92 389 q 241 444 181 438 q 371 451 301 451 l 696 451 q 607 604 676 551 q 419 657 538 657 q 226 600 300 657 l 167 676 q 419 754 265 754 m 703 354 l 419 354 q 270 349 326 354 q 184 329 214 344 q 145 285 154 314 q 136 207 136 256 q 161 153 136 175 q 226 117 186 131 q 317 97 267 103 q 419 90 368 90 q 522 97 471 90 q 613 117 572 103 q 678 153 653 131 q 703 207 703 175 l 703 354 z "},"b":{"ha":908,"x_min":97,"x_max":857,"o":"m 478 753 q 757 653 657 753 q 857 372 857 553 q 757 93 857 193 q 478 -7 657 -7 q 197 93 297 -7 q 97 372 97 193 l 97 1081 l 194 1081 l 194 649 q 315 726 243 699 q 478 753 386 753 m 478 89 q 688 162 615 89 q 761 372 761 235 q 688 583 761 511 q 478 656 615 656 q 267 583 339 656 q 194 372 194 511 q 267 162 194 235 q 478 89 339 89 z "},"c":{"ha":742,"x_min":39,"x_max":696,"o":"m 696 90 q 576 17 646 42 q 419 -7 506 -7 q 139 93 239 -7 q 39 374 39 193 q 139 653 39 553 q 419 754 239 754 q 665 681 568 754 l 607 603 q 419 657 536 657 q 208 584 281 657 q 136 374 136 511 q 208 163 136 235 q 419 90 281 90 q 628 161 554 90 l 696 90 z "},"e":{"ha":857,"x_min":44,"x_max":806,"o":"m 425 754 q 706 653 606 754 q 806 374 806 553 l 806 372 q 791 338 806 351 q 757 324 776 324 l 144 324 q 228 150 157 210 q 424 90 299 90 q 631 160 558 90 l 699 90 q 424 -7 597 -7 q 144 93 244 -7 q 44 372 44 193 l 44 374 q 144 653 44 553 q 425 754 244 754 m 707 421 q 623 597 694 536 q 425 657 551 657 q 227 597 299 657 q 144 421 156 536 l 707 421 z "},"f":{"ha":518,"x_min":97,"x_max":476,"o":"m 267 881 q 194 671 194 808 l 194 533 l 476 533 l 447 436 l 194 436 l 194 0 l 97 0 l 97 671 q 197 950 97 850 q 476 1050 297 1050 l 476 953 q 267 881 342 953 z "},"g":{"ha":894,"x_min":39,"x_max":800,"o":"m 419 754 q 700 653 600 754 q 800 374 800 553 l 800 74 q 699 -206 800 -106 q 419 -306 599 -306 l 419 -208 q 629 -136 557 -208 q 701 74 701 -64 l 701 96 q 419 -7 601 -7 q 139 93 239 -7 q 39 374 39 193 q 139 653 39 553 q 419 754 239 754 m 703 374 q 631 585 703 513 q 419 657 558 657 q 208 585 281 657 q 136 374 136 513 q 208 163 136 235 q 419 90 281 90 q 620 153 549 90 q 701 336 692 215 l 703 374 z "},"h":{"ha":889,"x_min":97,"x_max":801,"o":"m 450 753 q 597 726 532 753 q 708 651 663 700 q 777 532 753 603 q 801 372 801 461 l 801 0 l 704 0 l 704 372 q 639 583 704 510 q 450 656 574 656 q 260 583 325 656 q 194 372 194 510 l 194 0 l 97 0 l 97 1082 l 194 1082 l 194 656 q 303 728 239 703 q 450 753 368 753 z "},"i":{"ha":339,"x_min":125,"x_max":222,"o":"m 222 0 l 125 0 l 125 739 l 222 739 l 222 0 l 222 0 m 222 1082 l 222 951 l 125 951 l 125 1082 l 222 1082 z "},"j":{"ha":307,"x_min":-14,"x_max":203,"o":"m 203 739 l 203 49 q 92 -307 203 -171 l 61 -344 l -14 -283 l 17 -246 q 106 49 106 -136 l 106 739 l 203 739 m 203 951 l 106 951 l 106 1082 l 203 1082 l 203 951 z "},"k":{"ha":697,"x_min":94,"x_max":699,"o":"m 699 739 l 376 399 l 697 0 l 574 0 l 310 328 l 192 203 l 192 0 l 94 0 l 94 1082 l 192 1082 l 192 344 l 565 739 l 699 739 l 699 739 z "},"t":{"ha":594,"x_min":43,"x_max":547,"o":"m 547 744 l 547 647 l 343 647 l 343 0 l 246 0 l 246 647 l 43 647 l 43 744 l 246 744 l 246 1082 l 343 1082 l 343 744 l 547 744 l 547 744 z "},"m":{"ha":1279,"x_min":97,"x_max":1192,"o":"m 894 753 q 1113 652 1035 753 q 1192 372 1192 551 l 1192 0 l 1096 0 l 1096 372 q 1089 460 1096 411 q 1060 553 1082 510 q 999 626 1039 597 q 894 656 960 656 q 790 626 829 656 q 728 553 750 597 q 700 460 707 510 q 693 372 693 411 l 693 0 l 596 0 l 596 372 q 589 460 596 411 q 561 553 582 510 q 501 626 540 597 q 396 656 461 656 q 291 626 331 656 q 230 553 251 597 q 201 460 208 510 q 194 372 194 411 l 194 0 l 97 0 l 97 372 q 176 652 97 551 q 396 753 254 753 q 544 715 482 753 q 644 604 607 676 q 745 715 682 676 q 894 753 808 753 z "},"n":{"ha":857,"x_min":97,"x_max":769,"o":"m 769 0 l 672 0 l 672 372 q 611 583 672 510 q 433 656 550 656 q 256 583 317 656 q 194 372 194 510 l 194 0 l 97 0 l 97 372 q 185 652 97 551 q 433 753 274 753 q 681 652 592 753 q 769 372 769 551 l 769 0 z "},"o":{"ha":850,"x_min":39,"x_max":800,"o":"m 419 -7 q 139 93 239 -7 q 39 374 39 193 q 139 653 39 553 q 419 754 239 754 q 700 653 600 754 q 800 374 800 553 q 700 93 800 193 q 419 -7 600 -7 m 419 657 q 208 585 281 657 q 136 374 136 513 q 208 163 136 235 q 419 90 281 90 q 631 163 558 90 q 703 374 703 235 q 631 585 703 513 q 419 657 558 657 z "},"r":{"ha":492,"x_min":94,"x_max":447,"o":"m 94 372 q 188 652 94 551 q 447 753 281 753 l 447 656 q 257 583 322 656 q 192 372 192 510 l 192 0 l 94 0 l 94 372 l 94 372 z "},"s":{"ha":633,"x_min":39,"x_max":588,"o":"m 324 419 q 417 398 369 410 q 502 363 464 386 q 564 303 540 340 q 588 207 588 265 q 514 50 588 107 q 314 -7 440 -7 q 113 50 186 -7 q 39 207 39 107 l 136 207 q 152 148 136 171 q 194 112 168 125 q 251 94 219 99 q 314 89 283 89 q 376 94 344 89 q 433 112 407 99 q 475 148 458 125 q 492 207 492 171 q 484 249 492 232 q 456 278 476 265 q 398 302 435 292 q 303 325 361 313 q 210 347 257 335 q 124 383 163 360 q 63 443 86 406 q 39 540 39 481 q 113 697 39 640 q 314 754 186 754 q 514 697 440 754 q 588 540 588 640 l 492 540 q 475 599 492 576 q 433 635 458 622 q 376 652 407 647 q 314 657 344 657 q 251 652 283 657 q 194 635 219 647 q 152 599 168 622 q 136 540 136 576 q 142 500 136 517 q 169 470 149 483 q 226 444 189 457 q 324 419 263 432 z "},"u":{"ha":754,"x_min":72,"x_max":694,"o":"m 383 -7 q 154 93 236 -7 q 72 374 72 193 l 72 739 l 169 739 l 169 374 q 176 285 169 333 q 206 192 183 236 q 272 119 229 149 q 383 90 314 90 q 495 119 453 90 q 560 192 538 149 q 590 285 583 236 q 597 374 597 333 l 597 739 l 694 739 l 694 374 q 613 93 694 193 q 383 -7 531 -7 z "},"v":{"ha":813,"x_min":42,"x_max":765,"o":"m 658 739 l 765 739 l 447 22 q 430 1 442 8 q 403 -7 418 -7 q 358 22 372 -7 l 42 739 l 147 739 l 403 161 l 658 739 z "},"z":{"ha":703,"x_min":115,"x_max":610,"o":"m 601 0 l 174 0 q 132 24 146 0 q 132 72 115 49 l 469 642 l 125 642 l 125 739 l 553 739 q 596 714 581 739 q 594 665 610 689 l 258 96 l 601 96 l 601 0 z "},"w":{"ha":1176,"x_min":42,"x_max":1129,"o":"m 1129 739 l 813 22 q 768 -7 799 -7 q 724 22 738 -7 l 585 335 l 449 22 q 404 -7 435 -7 q 377 1 389 -7 q 360 22 365 8 l 42 739 l 147 739 l 404 161 l 532 456 l 467 603 l 574 603 l 768 161 l 1024 739 l 1129 739 z "},"y":{"ha":818,"x_min":42,"x_max":771,"o":"m 665 739 l 771 739 l 310 -306 l 204 -306 l 354 33 l 42 739 l 147 739 l 406 154 l 665 739 l 665 739 z "},"&":{"ha":1074,"x_min":39,"x_max":1038,"o":"m 814 200 q 881 139 843 174 q 954 74 919 104 q 1013 22 989 43 q 1038 0 1038 0 l 893 0 q 881 10 893 0 q 851 37 869 19 q 806 77 832 54 q 751 126 781 100 q 599 28 686 64 q 414 -8 511 -8 q 138 67 236 -8 q 39 279 39 143 q 48 359 39 322 q 83 432 57 396 q 155 505 108 468 q 276 583 201 542 q 203 701 228 642 q 179 839 179 760 q 192 906 179 869 q 233 975 204 943 q 306 1028 261 1007 q 414 1050 350 1050 q 517 1029 474 1050 q 589 977 561 1008 q 631 909 617 946 q 644 839 644 872 q 631 741 644 782 q 590 669 617 700 q 524 611 563 638 q 435 558 485 585 l 742 267 q 772 336 761 300 q 783 410 783 372 l 881 410 q 863 300 881 353 q 814 200 846 247 m 275 839 q 297 731 275 778 q 365 631 318 683 q 455 682 419 660 q 510 726 490 704 q 539 775 531 749 q 547 839 547 801 q 542 869 547 850 q 522 906 536 888 q 481 939 507 925 q 414 953 456 953 q 334 935 363 953 q 292 897 306 918 q 277 857 279 875 q 275 839 275 839 m 414 88 q 558 116 490 88 q 679 193 626 144 l 346 510 q 234 438 275 471 q 171 378 193 406 q 142 326 149 350 q 136 279 136 301 q 165 179 136 217 q 235 121 193 142 q 326 94 278 100 q 414 88 375 88 z "},"!":{"ha":307,"x_min":97,"x_max":214,"o":"m 204 131 l 204 0 l 107 0 l 107 131 l 204 131 m 97 1042 l 214 1042 l 204 521 l 185 251 l 126 251 l 107 521 l 97 1042 z "},"Ð":{"ha":1042,"x_min":39,"x_max":999,"o":"m 479 1040 q 698 1005 601 1040 q 861 903 794 969 q 963 740 928 836 q 999 521 999 643 q 962 304 999 400 q 857 140 925 208 q 691 36 789 72 q 471 0 593 0 l 219 0 q 186 15 200 0 q 172 49 172 29 l 172 472 l 39 472 l 39 569 l 172 569 l 172 993 q 186 1026 172 1013 q 219 1040 200 1040 l 479 1040 m 471 97 q 790 208 678 97 q 903 521 903 318 q 794 836 903 728 q 479 944 685 944 l 268 944 l 268 569 l 692 569 l 692 472 l 268 472 l 268 97 l 471 97 z "},"æ":{"ha":1515,"x_min":42,"x_max":1468,"o":"m 1088 754 q 1367 653 1267 754 q 1468 374 1468 553 l 1468 372 q 1453 338 1468 351 q 1419 324 1439 324 l 806 324 q 890 150 818 210 q 1086 90 961 90 q 1293 160 1221 90 l 1360 90 q 1241 17 1311 42 q 1086 -7 1171 -7 q 906 26 983 -7 q 781 124 829 60 q 742 76 767 100 q 674 34 717 53 q 570 4 632 15 q 422 -7 508 -7 q 218 17 293 -7 q 103 76 143 42 q 53 147 64 110 q 42 207 42 183 q 68 340 42 292 q 139 413 94 389 q 244 444 183 438 q 374 451 304 451 l 699 451 q 610 604 679 551 q 422 657 540 657 q 229 600 303 657 l 169 676 q 422 754 268 754 q 625 710 540 754 q 754 583 710 667 q 885 710 800 667 q 1088 754 969 754 m 706 354 l 422 354 q 273 349 329 354 q 187 329 217 344 q 148 285 157 314 q 139 207 139 256 q 164 153 139 175 q 229 117 189 131 q 320 97 269 103 q 422 90 371 90 q 524 97 474 90 q 615 117 575 103 q 681 153 656 131 q 706 207 706 175 l 706 354 m 1368 421 q 1285 597 1356 536 q 1088 657 1214 657 q 890 597 961 657 q 806 421 818 536 l 1368 421 z "},"à":{"ha":850,"x_min":42,"x_max":803,"o":"m 422 754 q 703 653 603 754 q 803 374 803 553 l 803 207 q 792 147 803 183 q 741 76 781 110 q 626 17 701 42 q 422 -7 551 -7 q 218 17 293 -7 q 103 76 143 42 q 53 147 64 110 q 42 207 42 183 q 68 340 42 292 q 139 413 94 389 q 244 444 183 438 q 374 451 304 451 l 699 451 q 610 604 679 551 q 422 657 540 657 q 229 600 303 657 l 169 676 q 422 754 268 754 m 706 354 l 422 354 q 273 349 329 354 q 187 329 217 344 q 148 285 157 314 q 139 207 139 256 q 164 153 139 175 q 229 117 189 131 q 320 97 269 103 q 422 90 371 90 q 524 97 474 90 q 615 117 575 103 q 681 153 656 131 q 706 207 706 175 l 706 354 m 326 1040 l 440 1040 l 518 857 l 432 857 l 326 1040 z "},"á":{"ha":850,"x_min":42,"x_max":803,"o":"m 413 857 l 326 857 l 404 1040 l 518 1040 l 413 857 m 422 754 q 169 676 268 754 l 229 600 q 422 657 303 657 q 610 604 540 657 q 699 451 679 551 l 374 451 q 244 444 304 451 q 139 413 183 438 q 68 340 94 389 q 42 207 42 292 q 53 147 42 183 q 103 76 64 110 q 218 17 143 42 q 422 -7 293 -7 q 626 17 551 -7 q 741 76 701 42 q 792 147 781 110 q 803 207 803 183 l 803 374 q 703 653 803 553 q 422 754 603 754 m 706 207 q 681 153 706 175 q 615 117 656 131 q 524 97 575 103 q 422 90 474 90 q 320 97 371 90 q 229 117 269 103 q 164 153 189 131 q 139 207 139 175 q 148 285 139 256 q 187 329 157 314 q 273 349 217 344 q 422 354 329 354 l 706 354 l 706 207 z "},"â":{"ha":857,"x_min":42,"x_max":803,"o":"m 422 754 q 703 653 603 754 q 803 374 803 553 l 803 207 q 792 147 803 183 q 742 76 781 110 q 627 17 703 42 q 422 -7 551 -7 q 218 17 293 -7 q 103 76 143 42 q 53 147 64 110 q 42 207 42 183 q 68 340 42 292 q 140 413 94 389 q 245 444 185 438 q 374 451 306 451 l 699 451 q 610 604 679 551 q 422 657 540 657 q 231 600 303 657 l 169 676 q 422 754 268 754 m 706 354 l 422 354 q 273 349 329 354 q 187 329 217 344 q 148 285 157 314 q 139 207 139 256 q 164 153 139 175 q 229 117 189 131 q 320 97 269 103 q 422 90 371 90 q 524 97 474 90 q 615 117 575 103 q 681 153 656 131 q 706 207 706 175 l 706 354 m 388 865 l 276 865 l 383 1029 q 422 1050 397 1050 q 461 1029 447 1050 l 568 865 l 457 865 l 422 918 l 388 865 z "},"ä":{"ha":850,"x_min":42,"x_max":803,"o":"m 422 754 q 169 676 268 754 l 231 600 q 422 657 303 657 q 610 604 540 657 q 699 451 679 551 l 374 451 q 245 444 306 451 q 140 413 185 438 q 68 340 94 389 q 42 207 42 292 q 53 147 42 183 q 103 76 64 110 q 218 17 143 42 q 422 -7 293 -7 q 627 17 551 -7 q 742 76 703 42 q 792 147 781 110 q 803 207 803 183 l 803 374 q 703 653 803 553 q 422 754 603 754 m 706 207 q 681 153 706 175 q 615 117 656 131 q 524 97 575 103 q 422 90 474 90 q 320 97 371 90 q 229 117 269 103 q 164 153 189 131 q 139 207 139 175 q 148 285 139 256 q 187 329 157 314 q 273 349 217 344 q 422 354 329 354 l 706 354 l 706 207 m 403 949 q 383 901 403 921 q 333 881 363 881 q 285 901 306 881 q 265 949 265 921 q 285 997 265 976 q 333 1017 306 1017 q 383 997 363 1017 q 403 949 403 976 m 581 949 q 560 901 581 921 q 511 881 539 881 q 463 901 483 881 q 443 949 443 921 q 463 997 443 976 q 511 1017 483 1017 q 560 997 539 1017 q 581 949 581 976 z "},"ã":{"ha":857,"x_min":42,"x_max":803,"o":"m 422 754 q 169 676 268 754 l 231 600 q 422 657 303 657 q 610 604 540 657 q 699 451 679 551 l 374 451 q 245 444 306 451 q 140 413 185 438 q 68 340 94 389 q 42 207 42 292 q 53 147 42 183 q 103 76 64 110 q 218 17 143 42 q 422 -7 293 -7 q 627 17 551 -7 q 742 76 703 42 q 792 147 781 110 q 803 207 803 183 l 803 374 q 703 653 803 553 q 422 754 603 754 m 706 207 q 681 153 706 175 q 615 117 656 131 q 524 97 575 103 q 422 90 474 90 q 320 97 371 90 q 229 117 269 103 q 164 153 189 131 q 139 207 139 175 q 148 285 139 256 q 187 329 157 314 q 273 349 217 344 q 422 354 329 354 l 706 354 l 706 207 m 500 863 q 449 875 472 863 q 401 907 426 888 q 387 917 394 913 q 372 929 379 922 q 335 940 349 944 q 312 924 321 938 q 301 908 303 911 l 217 949 q 224 963 218 951 q 242 987 231 974 q 271 1013 254 1000 q 311 1031 288 1025 q 360 1033 331 1036 q 425 1006 389 1031 q 442 993 435 999 q 457 982 450 988 q 482 963 471 971 q 500 956 493 956 q 521 963 506 956 q 568 999 536 971 l 628 926 q 556 877 588 892 q 500 863 525 863 z "},"å":{"ha":857,"x_min":42,"x_max":803,"o":"m 422 754 q 169 676 268 754 l 231 600 q 422 657 303 657 q 610 604 540 657 q 699 451 679 551 l 374 451 q 245 444 306 451 q 140 413 185 438 q 68 340 94 389 q 42 207 42 292 q 53 147 42 183 q 103 76 64 110 q 218 17 143 42 q 422 -7 293 -7 q 627 17 551 -7 q 742 76 703 42 q 792 147 781 110 q 803 207 803 183 l 803 374 q 703 653 803 553 q 422 754 603 754 m 706 207 q 681 153 706 175 q 615 117 656 131 q 524 97 575 103 q 422 90 474 90 q 320 97 371 90 q 229 117 269 103 q 164 153 189 131 q 139 207 139 175 q 148 285 139 256 q 187 329 157 314 q 273 349 217 344 q 422 354 329 354 l 706 354 l 706 207 m 422 807 q 367 818 393 807 q 322 849 342 829 q 292 894 303 868 q 281 949 281 919 q 292 1003 281 978 q 322 1049 303 1029 q 367 1079 342 1068 q 422 1090 393 1090 q 477 1079 451 1090 q 522 1049 503 1068 q 553 1003 542 1029 q 564 949 564 978 q 553 894 564 919 q 522 849 542 868 q 477 818 503 829 q 422 807 451 807 m 422 997 q 388 983 403 997 q 374 949 374 968 q 388 915 374 929 q 422 900 403 900 q 456 915 442 900 q 471 949 471 929 q 456 983 471 968 q 422 997 442 997 z "},"@":{"ha":1201,"x_min":60,"x_max":1147,"o":"m 1025 894 q 1119 719 1092 817 q 1132 514 1147 622 q 1119 447 1128 481 q 1097 382 1110 414 q 928 264 1044 239 q 858 301 885 275 q 753 240 822 263 q 567 218 685 218 q 492 221 531 218 q 417 232 454 224 q 349 256 381 240 q 296 296 318 271 q 267 344 281 313 q 261 422 254 375 q 300 529 271 490 q 374 588 329 568 q 476 613 418 608 q 600 618 533 618 l 839 618 q 803 717 835 683 q 728 762 772 751 q 646 772 683 772 q 486 729 550 772 l 446 701 l 390 782 l 431 808 q 646 869 521 869 q 876 781 799 869 q 932 538 953 692 l 915 418 q 921 381 911 400 q 947 358 931 363 q 963 357 956 357 q 977 363 969 357 q 992 381 985 368 q 1007 415 999 393 l 1007 417 q 1036 526 1028 469 q 1027 692 1049 614 q 953 831 1006 769 q 828 922 900 890 q 669 953 756 953 q 494 918 579 953 q 342 824 410 883 q 228 684 274 764 q 171 514 183 604 q 180 349 158 426 q 254 211 201 271 q 379 119 307 151 q 536 88 451 88 q 721 126 631 88 q 883 235 811 164 l 950 164 q 756 36 864 81 q 536 -8 649 -8 q 338 31 429 -8 q 181 147 247 71 q 87 321 114 224 q 75 526 60 418 q 144 730 89 635 q 279 897 199 825 q 460 1009 360 968 q 669 1050 561 1050 q 867 1010 776 1050 q 1025 894 958 969 m 832 507 q 833 522 832 517 l 600 522 q 481 517 526 522 q 409 498 435 511 q 372 463 383 485 q 357 410 361 442 q 358 376 354 388 q 368 358 363 365 q 410 333 382 342 q 467 321 438 325 q 524 316 497 317 q 567 315 551 315 q 709 328 658 315 q 785 367 760 342 q 819 427 811 392 q 832 507 826 463 z "},"ç":{"ha":742,"x_min":42,"x_max":699,"o":"m 356 -47 q 419 -58 390 -49 q 471 -85 449 -68 q 506 -123 493 -101 q 518 -169 518 -144 q 505 -218 518 -196 q 469 -257 492 -240 q 416 -283 447 -274 q 350 -292 385 -292 q 303 -287 326 -292 q 261 -274 281 -283 l 290 -211 q 350 -224 315 -224 q 422 -206 393 -224 q 450 -169 450 -189 q 422 -133 450 -150 q 350 -117 393 -117 q 333 -117 342 -117 q 315 -119 324 -117 l 258 -133 l 301 7 q 109 133 176 39 q 42 374 42 226 q 142 653 42 553 q 422 754 242 754 q 668 681 571 754 l 610 603 q 422 657 539 657 q 212 584 285 657 q 139 374 139 511 q 212 163 139 235 q 422 90 285 90 q 542 108 489 90 q 631 161 594 125 l 699 90 q 578 17 649 42 q 422 -7 508 -7 q 395 -7 408 -7 q 369 -4 382 -7 l 356 -47 l 356 -47 z "},"è":{"ha":857,"x_min":42,"x_max":803,"o":"m 422 754 q 703 653 603 754 q 803 374 803 553 l 803 372 q 788 338 803 351 q 754 324 774 324 l 142 324 q 225 150 154 210 q 421 90 296 90 q 628 160 556 90 l 696 90 q 421 -7 594 -7 q 142 93 242 -7 q 42 372 42 193 l 42 374 q 142 653 42 553 q 422 754 242 754 m 704 421 q 620 597 692 536 q 422 657 549 657 q 224 597 296 657 q 142 421 153 536 l 704 421 m 326 1040 l 440 1040 l 518 857 l 432 857 l 326 1040 z "},"é":{"ha":857,"x_min":42,"x_max":803,"o":"m 422 754 q 142 653 242 754 q 42 374 42 553 l 42 372 q 142 93 42 193 q 421 -7 242 -7 q 696 90 594 -7 l 628 160 q 421 90 556 90 q 225 150 296 90 q 142 324 154 210 l 754 324 q 788 338 774 324 q 803 372 803 351 l 803 374 q 703 653 803 553 q 422 754 603 754 m 142 421 q 224 597 153 536 q 422 657 296 657 q 620 597 549 657 q 704 421 692 536 l 142 421 m 413 857 l 326 857 l 404 1040 l 518 1040 l 413 857 z "},"ê":{"ha":857,"x_min":42,"x_max":803,"o":"m 422 754 q 703 653 603 754 q 803 374 803 553 l 803 372 q 788 338 803 351 q 754 324 774 324 l 142 324 q 225 150 154 210 q 421 90 296 90 q 628 160 556 90 l 696 90 q 421 -7 594 -7 q 142 93 242 -7 q 42 372 42 193 l 42 374 q 142 653 42 553 q 422 754 242 754 m 704 421 q 620 597 692 536 q 422 657 549 657 q 224 597 296 657 q 142 421 153 536 l 704 421 m 388 865 l 276 865 l 383 1029 q 422 1050 397 1050 q 461 1029 447 1050 l 568 865 l 457 865 l 422 918 l 388 865 z "},"ı":{"ha":319,"x_min":125,"x_max":222,"o":"m 222 0 l 125 0 l 125 739 l 222 739 l 222 0 z "},"ë":{"ha":850,"x_min":42,"x_max":803,"o":"m 422 754 q 142 653 242 754 q 42 374 42 553 l 42 372 q 142 93 42 193 q 421 -7 242 -7 q 696 90 594 -7 l 628 160 q 421 90 556 90 q 225 150 296 90 q 142 324 154 210 l 754 324 q 789 338 775 324 q 803 372 803 351 l 803 374 q 703 653 803 553 q 422 754 603 754 m 142 421 q 224 597 153 536 q 422 657 296 657 q 620 597 549 657 q 704 421 692 536 l 142 421 m 403 949 q 382 901 403 921 q 333 881 361 881 q 285 901 306 881 q 265 949 265 921 q 285 997 265 976 q 333 1017 306 1017 q 382 997 361 1017 q 403 949 403 976 m 579 949 q 559 901 579 921 q 511 881 539 881 q 463 901 483 881 q 443 949 443 921 q 463 997 443 976 q 511 1017 483 1017 q 559 997 539 1017 q 579 949 579 976 z "},"ĩ":{"ha":282,"x_min":-57,"x_max":354,"o":"m 197 0 l 100 0 l 100 739 l 197 739 l 197 0 m 226 863 q 176 875 199 863 q 126 907 153 888 q 113 917 119 913 q 99 929 106 922 q 61 940 75 944 q 38 924 47 938 q 28 908 29 911 l -57 949 q -49 963 -56 951 q -32 987 -43 974 q -3 1013 -21 1000 q 36 1031 14 1025 q 85 1033 56 1036 q 151 1006 115 1031 q 169 993 161 999 q 183 982 176 988 q 208 963 197 971 q 226 956 219 956 q 247 963 232 956 q 294 999 263 971 l 354 926 q 283 877 314 892 q 226 863 251 863 z "},"ì":{"ha":332,"x_min":31,"x_max":222,"o":"m 222 0 l 125 0 l 125 739 l 222 739 l 222 0 l 222 0 m 136 857 l 31 1040 l 144 1040 l 222 857 l 136 857 z "},"í":{"ha":332,"x_min":125,"x_max":317,"o":"m 125 739 l 222 739 l 222 0 l 125 0 l 125 739 l 125 739 m 211 857 l 125 857 l 201 1040 l 317 1040 l 211 857 l 211 857 z "},"î":{"ha":358,"x_min":29,"x_max":321,"o":"m 126 739 l 224 739 l 224 0 l 126 0 l 126 739 m 140 865 l 29 865 l 136 1029 q 175 1050 150 1050 q 214 1029 200 1050 l 321 865 l 210 865 l 175 918 l 140 865 z "},"ï":{"ha":358,"x_min":17,"x_max":331,"o":"m 125 739 l 222 739 l 222 0 l 125 0 l 125 739 m 154 949 q 133 901 154 921 q 85 881 113 881 q 37 901 57 881 q 17 949 17 921 q 37 997 17 976 q 85 1017 57 1017 q 133 997 113 1017 q 154 949 154 976 m 331 949 q 310 901 331 921 q 263 881 290 881 q 215 901 235 881 q 194 949 194 921 q 215 997 194 976 q 263 1017 235 1017 q 310 997 290 1017 q 331 949 331 976 z "},"ĵ":{"ha":319,"x_min":-14,"x_max":300,"o":"m 203 739 l 203 49 q 92 -307 203 -171 l 61 -344 l -14 -283 l 17 -246 q 106 49 106 -136 l 106 739 l 203 739 m 119 865 l 8 865 l 115 1029 q 154 1050 129 1050 q 193 1029 179 1050 l 300 865 l 189 865 l 154 918 l 119 865 z "},"ń":{"ha":844,"x_min":97,"x_max":769,"o":"m 769 0 l 672 0 l 672 372 q 611 583 672 510 q 433 656 550 656 q 256 583 317 656 q 194 372 194 510 l 194 0 l 97 0 l 97 372 q 185 652 97 551 q 433 753 274 753 q 681 652 592 753 q 769 372 769 551 l 769 0 m 424 857 l 338 857 l 414 1040 l 529 1040 l 424 857 z "},"ñ":{"ha":850,"x_min":97,"x_max":769,"o":"m 769 0 l 672 0 l 672 372 q 611 583 672 510 q 433 656 550 656 q 256 583 317 656 q 194 372 194 510 l 194 0 l 97 0 l 97 372 q 185 652 97 551 q 433 753 274 753 q 681 652 592 753 q 769 372 769 551 l 769 0 m 510 863 q 460 875 483 863 q 411 907 438 888 q 397 917 404 913 q 383 929 390 922 q 344 940 360 944 q 323 924 332 938 q 311 908 314 911 l 228 949 q 235 963 229 951 q 252 987 240 974 q 281 1013 264 1000 q 321 1031 297 1025 q 370 1033 340 1036 q 436 1006 400 1031 q 453 993 446 999 q 468 982 461 988 q 493 963 482 971 q 511 956 504 956 q 531 963 517 956 q 579 999 546 971 l 639 926 q 567 877 599 892 q 510 863 536 863 z "},"ò":{"ha":857,"x_min":42,"x_max":803,"o":"m 422 -7 q 142 93 242 -7 q 42 374 42 193 q 142 653 42 553 q 422 754 242 754 q 703 653 603 754 q 803 374 803 553 q 703 93 803 193 q 422 -7 603 -7 m 422 657 q 211 585 283 657 q 139 374 139 513 q 211 163 139 235 q 422 90 283 90 q 633 163 561 90 q 706 374 706 235 q 633 585 706 513 q 422 657 561 657 m 326 1040 l 440 1040 l 518 857 l 432 857 l 326 1040 z "},"ó":{"ha":850,"x_min":42,"x_max":803,"o":"m 42 374 q 142 653 42 553 q 422 754 242 754 q 703 653 603 754 q 803 374 803 553 q 703 93 803 193 q 422 -7 603 -7 q 142 93 242 -7 q 42 374 42 193 m 139 374 q 211 163 139 235 q 422 90 283 90 q 633 163 561 90 q 706 374 706 235 q 633 585 706 513 q 422 657 561 657 q 211 585 283 657 q 139 374 139 513 m 413 857 l 326 857 l 404 1040 l 518 1040 l 413 857 z "},"ô":{"ha":850,"x_min":42,"x_max":803,"o":"m 42 374 q 142 653 42 553 q 422 754 242 754 q 703 653 603 754 q 803 374 803 553 q 703 93 803 193 q 422 -7 603 -7 q 142 93 242 -7 q 42 374 42 193 m 139 374 q 211 163 139 235 q 422 90 283 90 q 633 163 561 90 q 706 374 706 235 q 633 585 706 513 q 422 657 561 657 q 211 585 283 657 q 139 374 139 513 m 388 865 l 276 865 l 383 1029 q 422 1050 397 1050 q 461 1029 447 1050 l 568 865 l 457 865 l 422 918 l 388 865 z "},"õ":{"ha":857,"x_min":42,"x_max":803,"o":"m 42 374 q 142 653 42 553 q 422 754 242 754 q 703 653 603 754 q 803 374 803 553 q 703 93 803 193 q 422 -7 603 -7 q 142 93 242 -7 q 42 374 42 193 m 139 374 q 211 163 139 235 q 422 90 283 90 q 633 163 561 90 q 706 374 706 235 q 633 585 706 513 q 422 657 561 657 q 211 585 283 657 q 139 374 139 513 m 500 863 q 449 875 472 863 q 400 907 426 888 q 386 917 393 913 q 372 929 379 922 q 335 940 349 944 q 312 924 321 938 q 301 908 303 911 l 217 949 q 224 963 218 951 q 242 987 231 974 q 270 1013 253 1000 q 310 1031 288 1025 q 359 1033 329 1036 q 425 1006 389 1031 q 442 993 435 999 q 457 982 450 988 q 482 963 471 971 q 500 956 493 956 q 521 963 506 956 q 568 999 536 971 l 628 926 q 556 877 588 892 q 500 863 525 863 z "},"ö":{"ha":850,"x_min":42,"x_max":803,"o":"m 42 374 q 142 653 42 553 q 422 754 242 754 q 703 653 603 754 q 803 374 803 553 q 703 93 803 193 q 422 -7 603 -7 q 142 93 242 -7 q 42 374 42 193 m 139 374 q 211 163 139 235 q 422 90 283 90 q 633 163 561 90 q 706 374 706 235 q 633 585 706 513 q 422 657 561 657 q 211 585 283 657 q 139 374 139 513 m 401 949 q 381 901 401 921 q 333 881 361 881 q 285 901 306 881 q 265 949 265 921 q 285 997 265 976 q 333 1017 306 1017 q 381 997 361 1017 q 401 949 401 976 m 579 949 q 559 901 579 921 q 511 881 539 881 q 463 901 483 881 q 443 949 443 921 q 463 997 443 976 q 511 1017 483 1017 q 559 997 539 1017 q 579 949 579 976 z "},"ù":{"ha":754,"x_min":69,"x_max":692,"o":"m 381 -7 q 151 93 233 -7 q 69 374 69 193 l 69 739 l 167 739 l 167 374 q 174 285 167 333 q 203 192 181 236 q 269 119 226 149 q 381 90 311 90 q 492 119 450 90 q 558 192 535 149 q 588 285 581 236 q 594 374 594 333 l 594 739 l 692 739 l 692 374 q 610 93 692 193 q 381 -7 528 -7 m 285 1040 l 399 1040 l 476 857 l 390 857 l 285 1040 z "},"ú":{"ha":754,"x_min":69,"x_max":692,"o":"m 381 -7 q 610 93 528 -7 q 692 374 692 193 l 692 739 l 594 739 l 594 374 q 588 285 594 333 q 558 192 581 236 q 492 119 535 149 q 381 90 450 90 q 269 119 311 90 q 203 192 226 149 q 174 285 181 236 q 167 374 167 333 l 167 739 l 69 739 l 69 374 q 151 93 69 193 q 381 -7 233 -7 m 371 857 l 285 857 l 363 1040 l 476 1040 l 371 857 z "},"û":{"ha":761,"x_min":69,"x_max":692,"o":"m 381 -7 q 151 93 233 -7 q 69 374 69 193 l 69 739 l 167 739 l 167 374 q 174 285 167 333 q 203 192 181 236 q 269 119 226 149 q 381 90 311 90 q 492 119 450 90 q 558 192 535 149 q 588 285 581 236 q 594 374 594 333 l 594 739 l 692 739 l 692 374 q 610 93 692 193 q 381 -7 528 -7 m 346 865 l 235 865 l 342 1029 q 381 1050 356 1050 q 419 1029 406 1050 l 526 865 l 415 865 l 381 918 l 346 865 z "},"ü":{"ha":754,"x_min":69,"x_max":692,"o":"m 381 -7 q 610 93 528 -7 q 692 374 692 193 l 692 739 l 594 739 l 594 374 q 588 285 594 333 q 558 192 581 236 q 492 119 535 149 q 381 90 450 90 q 269 119 311 90 q 203 192 226 149 q 174 285 181 236 q 167 374 167 333 l 167 739 l 69 739 l 69 374 q 151 93 69 193 q 381 -7 233 -7 m 360 949 q 340 901 360 921 q 292 881 319 881 q 244 901 264 881 q 224 949 224 921 q 244 997 224 976 q 292 1017 264 1017 q 340 997 319 1017 q 360 949 360 976 m 538 949 q 517 901 538 921 q 469 881 497 881 q 422 901 442 881 q 401 949 401 921 q 422 997 401 976 q 469 1017 442 1017 q 517 997 497 1017 q 538 949 538 976 z "},"ý":{"ha":818,"x_min":42,"x_max":771,"o":"m 665 739 l 406 154 l 147 739 l 42 739 l 354 33 l 204 -306 l 310 -306 l 771 739 l 665 739 l 665 739 m 397 857 l 311 857 l 388 1040 l 501 1040 l 397 857 l 397 857 z "},"ÿ":{"ha":818,"x_min":42,"x_max":771,"o":"m 665 739 l 406 154 l 147 739 l 42 739 l 354 33 l 204 -306 l 310 -306 l 771 739 l 665 739 m 386 949 q 366 901 386 921 q 318 881 346 881 q 269 901 289 881 q 249 949 249 921 q 269 997 249 976 q 318 1017 289 1017 q 366 997 346 1017 q 386 949 386 976 m 564 949 q 544 901 564 921 q 494 881 524 881 q 447 901 467 881 q 426 949 426 921 q 447 997 426 976 q 494 1017 467 1017 q 544 997 524 1017 q 564 949 564 976 z "},"Æ":{"ha":1151,"x_min":42,"x_max":1104,"o":"m 632 944 l 632 619 l 1000 619 l 972 522 l 632 522 l 632 97 l 1104 97 l 1104 0 l 583 0 q 549 15 564 0 q 535 49 535 29 l 535 281 l 286 281 l 151 0 l 42 0 l 540 1014 q 583 1040 553 1040 l 1104 1040 l 1104 944 l 632 944 m 535 785 l 335 378 l 535 378 l 535 785 z "},"Å":{"ha":1183,"x_min":42,"x_max":1136,"o":"m 1029 0 l 1136 0 l 631 1022 q 613 1042 625 1035 q 588 1050 601 1050 q 544 1022 558 1050 l 42 0 l 151 0 l 286 281 l 889 281 l 1029 0 m 335 378 l 588 892 l 842 378 l 335 378 m 589 1093 q 534 1104 560 1093 q 489 1134 508 1115 q 458 1179 469 1153 q 447 1235 447 1206 q 458 1290 447 1264 q 489 1335 469 1315 q 534 1365 508 1354 q 589 1376 560 1376 q 644 1365 618 1376 q 689 1335 669 1354 q 719 1290 708 1315 q 731 1235 731 1264 q 719 1179 731 1206 q 689 1134 708 1153 q 644 1104 669 1115 q 589 1093 618 1093 m 589 1282 q 555 1268 569 1282 q 540 1235 540 1254 q 555 1200 540 1214 q 589 1186 569 1186 q 623 1200 608 1186 q 638 1235 638 1214 q 623 1268 638 1254 q 589 1282 608 1282 z "},"À":{"ha":1176,"x_min":42,"x_max":1136,"o":"m 889 281 l 286 281 l 151 0 l 42 0 l 544 1022 q 588 1050 558 1050 q 613 1042 601 1050 q 631 1022 625 1035 l 1136 0 l 1029 0 l 889 281 m 842 378 l 588 892 l 335 378 l 842 378 m 493 1326 l 607 1326 l 685 1142 l 599 1142 l 493 1326 z "},"Á":{"ha":1176,"x_min":42,"x_max":1136,"o":"m 289 281 l 892 281 l 1026 0 l 1136 0 l 633 1022 q 590 1050 619 1050 q 546 1022 560 1050 l 42 0 l 149 0 l 289 281 m 336 378 l 590 892 l 843 378 l 336 378 m 579 1142 l 493 1142 l 569 1326 l 685 1326 l 579 1142 z "},"Â":{"ha":1183,"x_min":42,"x_max":1136,"o":"m 889 281 l 286 281 l 151 0 l 42 0 l 544 1022 q 588 1050 558 1050 q 613 1042 601 1050 q 631 1022 625 1035 l 1136 0 l 1029 0 l 889 281 m 842 378 l 588 892 l 335 378 l 842 378 m 554 1151 l 443 1151 l 550 1314 q 589 1335 563 1335 q 628 1314 615 1335 l 735 1151 l 624 1151 l 589 1203 l 554 1151 z "},"Ã":{"ha":1183,"x_min":42,"x_max":1136,"o":"m 1029 0 l 1136 0 l 631 1022 q 613 1042 625 1035 q 588 1050 601 1050 q 544 1022 558 1050 l 42 0 l 151 0 l 286 281 l 889 281 l 1029 0 m 335 378 l 588 892 l 842 378 l 335 378 m 667 1149 q 616 1161 639 1149 q 567 1193 593 1174 q 553 1203 560 1199 q 539 1214 546 1208 q 500 1226 517 1231 q 478 1210 488 1222 q 467 1194 469 1197 l 383 1235 q 390 1248 385 1238 q 408 1272 396 1258 q 436 1297 419 1285 q 476 1317 453 1310 q 526 1319 496 1322 q 592 1290 556 1315 q 609 1278 601 1283 q 624 1268 617 1274 q 649 1249 638 1257 q 667 1242 660 1242 q 687 1249 672 1242 q 735 1283 701 1256 l 794 1213 q 723 1163 754 1178 q 667 1149 692 1149 z "},"Ä":{"ha":1189,"x_min":42,"x_max":1136,"o":"m 1029 0 l 1136 0 l 631 1022 q 613 1042 625 1035 q 588 1050 601 1050 q 544 1022 558 1050 l 42 0 l 151 0 l 286 281 l 889 281 l 1029 0 m 335 378 l 588 892 l 842 378 l 335 378 m 568 1235 q 548 1185 568 1206 q 500 1165 528 1165 q 452 1185 472 1165 q 432 1235 432 1206 q 452 1283 432 1263 q 500 1303 472 1303 q 548 1283 528 1303 q 568 1235 568 1263 m 746 1235 q 726 1185 746 1206 q 678 1165 706 1165 q 629 1185 650 1165 q 608 1235 608 1206 q 629 1283 608 1263 q 678 1303 650 1303 q 726 1283 706 1303 q 746 1235 746 1263 z "},"Ç":{"ha":1004,"x_min":42,"x_max":956,"o":"m 447 -50 q 510 -60 481 -50 q 562 -86 540 -69 q 596 -124 583 -103 q 608 -171 608 -146 q 595 -218 608 -196 q 560 -257 582 -240 q 507 -283 538 -274 q 442 -293 476 -293 q 353 -275 396 -293 l 382 -212 q 442 -225 407 -225 q 513 -208 485 -225 q 540 -171 540 -190 q 513 -134 540 -151 q 442 -117 485 -117 q 407 -121 424 -117 l 350 -133 l 396 13 q 134 188 226 57 q 42 521 42 318 q 78 743 42 644 q 182 910 114 842 q 348 1014 250 978 q 571 1050 446 1050 q 914 949 779 1050 l 857 871 q 571 953 747 953 q 249 842 360 953 q 139 521 139 731 q 249 199 139 310 q 571 88 360 88 q 888 196 775 88 l 956 126 q 789 25 886 60 q 571 -10 692 -10 q 463 -1 514 -10 l 447 -50 l 447 -50 z "},"È":{"ha":767,"x_min":69,"x_max":725,"o":"m 167 944 l 167 619 l 622 619 l 593 522 l 167 522 l 167 97 l 725 97 l 725 0 l 118 0 q 84 15 99 0 q 69 49 69 29 l 69 993 q 84 1026 69 1013 q 118 1040 99 1040 l 725 1040 l 725 944 l 167 944 m 301 1326 l 417 1326 l 493 1142 l 407 1142 l 301 1326 z "},"É":{"ha":767,"x_min":69,"x_max":725,"o":"m 725 944 l 725 1040 l 118 1040 q 84 1026 99 1040 q 69 993 69 1013 l 69 49 q 84 15 69 29 q 118 0 99 0 l 725 0 l 725 97 l 167 97 l 167 522 l 593 522 l 622 619 l 167 619 l 167 944 l 725 944 m 388 1142 l 301 1142 l 379 1326 l 493 1326 l 388 1142 z "},"Ê":{"ha":767,"x_min":69,"x_max":725,"o":"m 167 944 l 167 619 l 622 619 l 593 522 l 167 522 l 167 97 l 725 97 l 725 0 l 118 0 q 84 15 99 0 q 69 49 69 29 l 69 993 q 84 1026 69 1013 q 118 1040 99 1040 l 725 1040 l 725 944 l 167 944 m 363 1151 l 251 1151 l 358 1314 q 397 1335 371 1335 q 436 1314 424 1335 l 543 1151 l 432 1151 l 397 1203 l 363 1151 z "},"Ë":{"ha":767,"x_min":69,"x_max":725,"o":"m 725 944 l 725 1040 l 118 1040 q 84 1026 99 1040 q 69 993 69 1013 l 69 49 q 84 15 69 29 q 118 0 99 0 l 725 0 l 725 97 l 167 97 l 167 522 l 593 522 l 622 619 l 167 619 l 167 944 l 725 944 m 378 1235 q 357 1185 378 1206 q 308 1165 336 1165 q 260 1185 281 1165 q 240 1235 240 1206 q 260 1283 240 1263 q 308 1303 281 1303 q 357 1283 336 1303 q 378 1235 378 1263 m 554 1235 q 534 1185 554 1206 q 486 1165 514 1165 q 438 1185 458 1165 q 418 1235 418 1206 q 438 1283 418 1263 q 486 1303 458 1303 q 534 1283 514 1303 q 554 1235 554 1263 z "},"Ì":{"ha":364,"x_min":43,"x_max":235,"o":"m 138 1040 l 235 1040 l 235 0 l 138 0 l 138 1040 m 149 1142 l 43 1326 l 157 1326 l 235 1142 l 149 1142 z "},"Í":{"ha":326,"x_min":125,"x_max":317,"o":"m 222 1040 l 222 0 l 125 0 l 125 1040 l 222 1040 l 222 1040 m 211 1142 l 125 1142 l 201 1326 l 317 1326 l 211 1142 l 211 1142 z "},"Ĩ":{"ha":351,"x_min":-35,"x_max":376,"o":"m 219 1040 l 219 0 l 122 0 l 122 1040 l 219 1040 m 249 1149 q 198 1161 221 1149 q 149 1193 175 1174 q 135 1203 142 1199 q 121 1214 128 1208 q 83 1226 97 1231 q 60 1210 69 1222 q 50 1194 51 1197 l -35 1235 q -27 1248 -33 1238 q -10 1272 -21 1258 q 19 1297 1 1285 q 58 1317 36 1310 q 108 1319 78 1322 q 174 1290 138 1315 q 191 1278 183 1283 q 206 1268 199 1274 q 231 1249 219 1257 q 249 1242 242 1242 q 269 1249 254 1242 q 317 1283 285 1256 l 376 1213 q 305 1163 336 1178 q 249 1149 274 1149 z "},"Î":{"ha":358,"x_min":29,"x_max":321,"o":"m 140 1151 l 29 1151 l 136 1314 q 175 1335 149 1335 q 214 1314 201 1335 l 321 1151 l 210 1151 l 175 1203 l 140 1151 m 224 1040 l 224 0 l 126 0 l 126 1040 l 224 1040 z "},"Ï":{"ha":358,"x_min":17,"x_max":331,"o":"m 222 1040 l 222 0 l 125 0 l 125 1040 l 222 1040 m 154 1235 q 133 1185 154 1206 q 85 1165 113 1165 q 37 1185 57 1165 q 17 1235 17 1206 q 37 1283 17 1263 q 85 1303 57 1303 q 133 1283 113 1303 q 154 1235 154 1263 m 331 1235 q 310 1185 331 1206 q 263 1165 290 1165 q 215 1185 235 1165 q 194 1235 194 1206 q 215 1283 194 1263 q 263 1303 235 1303 q 310 1283 290 1303 q 331 1235 331 1263 z "},"Ĵ":{"ha":332,"x_min":0,"x_max":313,"o":"m 75 -344 l 0 -283 l 31 -246 q 119 49 119 -136 l 119 1040 l 215 1040 l 215 49 q 106 -307 215 -172 l 75 -344 m 132 1151 l 21 1151 l 128 1314 q 167 1335 140 1335 q 206 1314 193 1335 l 313 1151 l 201 1151 l 167 1203 l 132 1151 z "},"Ń":{"ha":997,"x_min":125,"x_max":894,"o":"m 846 -8 q 807 13 821 -8 l 222 847 l 222 0 l 125 0 l 125 1001 q 134 1030 125 1017 q 158 1047 143 1043 q 189 1047 174 1053 q 213 1029 204 1042 l 799 193 l 799 1040 l 894 1040 l 894 40 q 885 11 894 24 q 861 -7 876 -1 q 846 -8 856 -8 m 500 1142 l 414 1142 l 492 1326 l 606 1326 l 500 1142 z "},"Ñ":{"ha":1017,"x_min":128,"x_max":897,"o":"m 849 -8 q 810 13 824 -8 l 225 847 l 225 0 l 128 0 l 128 1001 q 137 1030 128 1017 q 161 1047 146 1043 q 192 1047 176 1053 q 215 1029 207 1042 l 801 193 l 801 1040 l 897 1040 l 897 40 q 888 11 897 24 q 864 -7 879 -1 q 849 -8 858 -8 m 590 1149 q 540 1161 563 1149 q 492 1193 517 1174 l 463 1214 q 425 1226 439 1231 q 402 1210 411 1222 q 392 1194 393 1197 l 307 1235 q 315 1248 308 1238 q 332 1272 321 1258 q 360 1297 343 1285 q 400 1317 378 1310 q 449 1319 419 1322 q 515 1290 479 1315 q 533 1278 525 1283 q 547 1268 540 1274 q 572 1249 561 1257 q 590 1242 583 1242 q 611 1249 596 1242 q 658 1283 626 1256 l 718 1213 q 647 1163 678 1178 q 590 1149 615 1149 z "},"Ò":{"ha":1151,"x_min":42,"x_max":1100,"o":"m 571 -8 q 348 28 446 -8 q 182 132 250 64 q 78 298 114 200 q 42 521 42 396 q 78 743 42 644 q 182 910 114 842 q 348 1014 250 978 q 571 1050 446 1050 q 794 1014 696 1050 q 960 910 892 978 q 1064 743 1028 842 q 1100 521 1100 644 q 1064 298 1100 396 q 960 132 1028 200 q 794 28 892 64 q 571 -8 696 -8 m 571 953 q 249 842 360 953 q 139 521 139 731 q 249 199 139 310 q 571 88 360 88 q 892 199 782 88 q 1003 521 1003 310 q 892 842 1003 731 q 571 953 782 953 m 475 1326 l 589 1326 l 667 1142 l 581 1142 l 475 1326 z "},"Ó":{"ha":1144,"x_min":42,"x_max":1100,"o":"m 42 521 q 78 743 42 644 q 182 910 114 842 q 348 1014 250 978 q 571 1050 446 1050 q 794 1014 696 1050 q 960 910 892 978 q 1064 743 1028 842 q 1100 521 1100 644 q 1064 298 1100 396 q 960 132 1028 200 q 794 28 892 64 q 571 -8 696 -8 q 348 28 446 -8 q 182 132 250 64 q 78 298 114 200 q 42 521 42 396 m 139 521 q 249 199 139 310 q 571 88 360 88 q 892 199 782 88 q 1003 521 1003 310 q 892 842 1003 731 q 571 953 782 953 q 249 842 360 953 q 139 521 139 731 m 561 1142 l 475 1142 l 553 1326 l 667 1326 l 561 1142 z "},"Ô":{"ha":1138,"x_min":42,"x_max":1100,"o":"m 42 521 q 78 743 42 644 q 182 910 114 842 q 348 1014 250 978 q 571 1050 446 1050 q 794 1014 696 1050 q 960 910 892 978 q 1064 743 1028 842 q 1100 521 1100 644 q 1064 298 1100 396 q 960 132 1028 200 q 794 28 892 64 q 571 -8 696 -8 q 348 28 446 -8 q 182 132 250 64 q 78 298 114 200 q 42 521 42 396 m 139 521 q 249 199 139 310 q 571 88 360 88 q 892 199 782 88 q 1003 521 1003 310 q 892 842 1003 731 q 571 953 782 953 q 249 842 360 953 q 139 521 139 731 m 536 1151 l 425 1151 l 532 1314 q 571 1335 544 1335 q 610 1314 597 1335 l 717 1151 l 606 1151 l 571 1203 l 536 1151 z "},"Õ":{"ha":1144,"x_min":42,"x_max":1100,"o":"m 42 521 q 78 743 42 644 q 182 910 114 842 q 348 1014 250 978 q 571 1050 446 1050 q 794 1014 696 1050 q 960 910 892 978 q 1064 743 1028 842 q 1100 521 1100 644 q 1064 298 1100 396 q 960 132 1028 200 q 794 28 892 64 q 571 -8 696 -8 q 348 28 446 -8 q 182 132 250 64 q 78 298 114 200 q 42 521 42 396 m 139 521 q 249 199 139 310 q 571 88 360 88 q 892 199 782 88 q 1003 521 1003 310 q 892 842 1003 731 q 571 953 782 953 q 249 842 360 953 q 139 521 139 731 m 649 1149 q 598 1161 621 1149 q 549 1193 575 1174 q 535 1203 542 1199 q 521 1214 528 1208 q 482 1226 499 1231 q 460 1210 469 1222 q 450 1194 451 1197 l 365 1235 q 372 1248 367 1238 q 390 1272 378 1258 q 418 1297 401 1285 q 458 1317 435 1310 q 508 1319 478 1322 q 574 1290 538 1315 q 591 1278 583 1283 q 606 1268 599 1274 q 631 1249 619 1257 q 649 1242 642 1242 q 669 1249 654 1242 q 717 1283 685 1256 l 776 1213 q 705 1163 736 1178 q 649 1149 674 1149 z "},"Ö":{"ha":1144,"x_min":42,"x_max":1100,"o":"m 42 521 q 78 743 42 644 q 182 910 114 842 q 348 1014 250 978 q 571 1050 446 1050 q 794 1014 696 1050 q 960 910 892 978 q 1064 743 1028 842 q 1100 521 1100 644 q 1064 298 1100 396 q 960 132 1028 200 q 794 28 892 64 q 571 -8 696 -8 q 348 28 446 -8 q 182 132 250 64 q 78 298 114 200 q 42 521 42 396 m 139 521 q 249 199 139 310 q 571 88 360 88 q 892 199 782 88 q 1003 521 1003 310 q 892 842 1003 731 q 571 953 782 953 q 249 842 360 953 q 139 521 139 731 m 550 1235 q 530 1185 550 1206 q 482 1165 510 1165 q 434 1185 454 1165 q 414 1235 414 1206 q 434 1283 414 1263 q 482 1303 454 1303 q 530 1283 510 1303 q 550 1235 550 1263 m 728 1235 q 708 1185 728 1206 q 660 1165 688 1165 q 612 1185 632 1165 q 592 1235 592 1206 q 612 1283 592 1263 q 660 1303 632 1303 q 708 1283 688 1303 q 728 1235 728 1263 z "},"Ŕ":{"ha":978,"x_min":97,"x_max":976,"o":"m 976 0 l 635 424 q 738 459 690 432 q 820 527 785 486 q 876 619 856 568 q 896 729 896 671 q 872 848 896 792 q 807 946 849 904 q 710 1013 765 988 q 593 1039 656 1038 l 590 1039 l 146 1039 q 112 1024 126 1039 q 97 990 97 1010 l 97 0 l 194 0 l 194 419 l 514 419 l 851 0 l 976 0 m 194 942 l 586 942 q 668 925 629 942 q 736 880 707 908 q 782 813 765 851 q 799 729 799 774 q 782 647 799 685 q 736 579 765 608 q 668 533 707 550 q 586 517 629 517 l 194 517 l 194 942 m 528 1142 l 440 1142 l 518 1326 l 632 1326 l 528 1142 z "},"Ù":{"ha":876,"x_min":69,"x_max":821,"o":"m 821 1040 l 821 279 q 722 67 821 143 q 444 -8 622 -8 q 168 67 267 -8 q 69 279 69 143 l 69 1040 l 167 1040 l 167 279 q 195 179 167 217 q 266 121 224 142 q 357 94 308 100 q 444 88 406 88 q 532 94 483 88 q 623 121 581 100 q 694 179 665 142 q 724 279 724 217 l 724 1040 l 821 1040 m 349 1326 l 464 1326 l 540 1142 l 454 1142 l 349 1326 z "},"Ú":{"ha":882,"x_min":69,"x_max":821,"o":"m 167 1040 l 167 279 q 195 179 167 217 q 266 121 224 142 q 357 94 308 100 q 444 88 406 88 q 532 94 483 88 q 623 121 581 100 q 694 179 665 142 q 724 279 724 217 l 724 1040 l 821 1040 l 821 279 q 722 67 821 143 q 444 -8 622 -8 q 168 67 267 -8 q 69 279 69 143 l 69 1040 l 167 1040 m 436 1142 l 349 1142 l 426 1326 l 540 1326 l 436 1142 z "},"Û":{"ha":882,"x_min":69,"x_max":821,"o":"m 167 1040 l 167 279 q 195 179 167 217 q 266 121 224 142 q 357 94 308 100 q 444 88 406 88 q 532 94 483 88 q 623 121 581 100 q 694 179 665 142 q 724 279 724 217 l 724 1040 l 821 1040 l 821 279 q 722 67 821 143 q 444 -8 622 -8 q 168 67 267 -8 q 69 279 69 143 l 69 1040 l 167 1040 m 411 1151 l 299 1151 l 406 1314 q 444 1335 419 1335 q 485 1314 469 1335 l 590 1151 l 479 1151 l 444 1203 l 411 1151 z "},"Ü":{"ha":882,"x_min":69,"x_max":821,"o":"m 167 1040 l 167 279 q 195 179 167 217 q 266 121 224 142 q 357 94 308 100 q 444 88 406 88 q 532 94 483 88 q 623 121 581 100 q 694 179 665 142 q 724 279 724 217 l 724 1040 l 821 1040 l 821 279 q 722 67 821 143 q 444 -8 622 -8 q 168 67 267 -8 q 69 279 69 143 l 69 1040 l 167 1040 m 425 1235 q 405 1185 425 1206 q 356 1165 385 1165 q 308 1185 328 1165 q 288 1235 288 1206 q 308 1283 288 1263 q 356 1303 328 1303 q 405 1283 385 1303 q 425 1235 425 1263 m 601 1235 q 581 1185 601 1206 q 533 1165 561 1165 q 485 1185 506 1165 q 465 1235 465 1206 q 485 1283 465 1263 q 533 1303 506 1303 q 581 1283 561 1303 q 601 1235 601 1263 z "},"Ý":{"ha":990,"x_min":42,"x_max":943,"o":"m 943 1040 l 825 1040 l 493 560 l 160 1040 l 42 1040 l 444 464 l 444 0 l 540 0 l 540 460 l 943 1040 l 943 1040 m 483 1142 l 397 1142 l 474 1326 l 588 1326 l 483 1142 l 483 1142 z "},"`":{"ha":275,"x_min":42,"x_max":233,"o":"m 147 857 l 42 1040 l 156 1040 l 233 857 l 147 857 l 147 857 z "},"´":{"ha":275,"x_min":42,"x_max":233,"o":"m 128 857 l 42 857 l 118 1040 l 233 1040 l 128 857 l 128 857 z "},"ˆ":{"ha":383,"x_min":42,"x_max":333,"o":"m 153 865 l 42 865 l 149 1029 q 188 1050 163 1050 q 226 1029 213 1050 l 333 865 l 222 865 l 188 918 l 153 865 z "},"ˇ":{"ha":378,"x_min":42,"x_max":333,"o":"m 188 989 l 222 1040 l 333 1040 l 226 878 q 188 857 214 857 q 149 878 161 857 l 42 1040 l 153 1040 l 188 989 z "},"˚":{"ha":371,"x_min":42,"x_max":325,"o":"m 183 807 q 128 818 154 807 q 83 849 103 829 q 53 894 64 868 q 42 949 42 919 q 53 1003 42 978 q 83 1049 64 1029 q 128 1079 103 1068 q 183 1090 154 1090 q 238 1079 213 1090 q 283 1049 264 1068 q 314 1003 303 1029 q 325 949 325 978 q 314 894 325 919 q 283 849 303 868 q 238 818 264 829 q 183 807 213 807 m 183 997 q 149 983 164 997 q 135 949 135 968 q 149 915 135 929 q 183 900 164 900 q 217 915 203 900 q 232 949 232 929 q 217 983 232 968 q 183 997 203 997 z "},"¨":{"ha":410,"x_min":42,"x_max":356,"o":"m 179 949 q 158 901 179 921 q 110 881 138 881 q 62 901 82 881 q 42 949 42 921 q 62 997 42 976 q 110 1017 82 1017 q 158 997 138 1017 q 179 949 179 976 m 356 949 q 335 901 356 921 q 288 881 315 881 q 240 901 260 881 q 219 949 219 921 q 240 997 219 976 q 288 1017 260 1017 q 335 997 315 1017 q 356 949 356 976 z "},"˜":{"ha":499,"x_min":42,"x_max":453,"o":"m 325 863 q 274 875 297 863 q 225 907 251 888 q 211 917 218 913 q 197 929 204 922 q 160 940 174 944 q 137 924 146 938 q 126 908 128 911 l 42 949 q 49 963 43 951 q 67 987 56 974 q 95 1013 78 1000 q 135 1031 113 1025 q 184 1033 154 1036 q 250 1006 214 1031 q 267 993 260 999 q 282 982 275 988 q 307 963 296 971 q 325 956 318 956 q 346 963 331 956 q 393 999 361 971 l 453 926 q 381 877 413 892 q 325 863 350 863 z "},"¸":{"ha":351,"x_min":42,"x_max":300,"o":"m 139 -50 q 202 -60 172 -50 q 253 -86 232 -69 q 288 -124 275 -103 q 300 -171 300 -146 q 288 -218 300 -196 q 252 -257 275 -240 q 199 -283 229 -274 q 133 -293 168 -293 q 46 -275 89 -293 l 74 -212 q 133 -225 99 -225 q 204 -208 176 -225 q 232 -171 232 -190 q 204 -134 232 -151 q 133 -117 176 -117 q 99 -121 115 -117 l 42 -133 l 83 0 l 154 0 l 139 -50 l 139 -50 z "},"?":{"ha":754,"x_min":42,"x_max":704,"o":"m 425 0 l 329 0 l 329 131 l 425 131 l 425 0 m 372 1049 q 616 972 528 1049 q 704 761 704 896 q 694 669 704 707 q 664 601 683 632 q 615 543 644 571 q 547 483 585 515 q 532 470 540 476 q 515 457 524 464 q 447 380 478 428 q 415 251 415 332 l 339 251 q 349 355 339 310 q 376 435 360 400 q 415 494 393 469 q 457 535 436 518 q 471 545 464 540 q 485 556 478 550 q 543 608 519 586 q 581 652 567 631 q 601 699 596 674 q 607 761 607 724 q 585 858 607 821 q 530 917 564 896 q 454 945 496 938 q 372 953 413 953 q 290 945 332 953 q 215 917 249 938 q 160 858 182 896 q 139 761 139 821 l 42 761 q 130 972 42 896 q 372 1049 218 1049 z "},"¿":{"ha":754,"x_min":42,"x_max":704,"o":"m 321 739 l 417 739 l 417 608 l 321 608 l 321 739 m 374 -311 q 130 -234 218 -311 q 42 -22 42 -157 q 52 69 42 32 q 82 138 63 107 q 131 195 101 168 q 199 256 161 222 q 231 281 213 269 q 267 314 249 294 q 299 358 285 333 q 322 415 314 383 q 331 488 331 447 l 407 488 q 397 383 407 429 q 369 303 386 338 q 331 244 353 268 q 289 204 310 221 q 275 193 282 199 q 261 182 268 188 q 202 130 225 151 q 165 87 179 108 q 144 40 150 65 q 139 -22 139 15 q 160 -119 139 -82 q 216 -178 182 -157 q 292 -206 250 -199 q 374 -214 333 -214 q 456 -206 414 -214 q 531 -178 497 -199 q 585 -119 564 -157 q 607 -22 607 -82 l 704 -22 q 616 -234 704 -157 q 374 -311 528 -311 z "},"*":{"ha":531,"x_min":42,"x_max":489,"o":"m 489 843 l 344 796 l 433 672 l 356 615 l 265 739 l 175 615 l 97 672 l 188 796 l 42 843 l 72 935 l 217 888 l 217 1040 l 314 1040 l 314 888 l 460 935 l 489 843 l 489 843 z "},"“":{"ha":300,"x_min":42,"x_max":278,"o":"m 181 788 l 181 918 q 186 968 181 944 q 200 1008 190 988 q 228 1040 210 1029 l 261 1006 q 250 989 256 1000 q 242 963 246 979 q 239 918 239 946 l 278 918 l 278 788 l 181 788 m 42 788 l 42 918 q 47 968 42 944 q 61 1008 51 988 q 89 1040 71 1029 l 122 1006 q 111 989 117 1000 q 103 963 107 979 q 100 918 100 946 l 139 918 l 139 788 l 42 788 z "},"”":{"ha":282,"x_min":-3,"x_max":233,"o":"m 94 1040 l 94 911 q 89 860 94 885 q 75 819 85 839 q 47 788 65 799 l 13 824 q 24 839 18 828 q 32 866 28 849 q 36 911 36 883 l -3 911 l -3 1040 l 94 1040 m 233 1040 l 233 911 q 228 860 233 885 q 214 819 224 839 q 186 788 204 799 l 151 824 q 163 839 157 828 q 171 866 167 849 q 175 911 175 883 l 136 911 l 136 1040 l 233 1040 z "},"’":{"ha":147,"x_min":-3,"x_max":94,"o":"m 94 1040 l 94 911 q 89 860 94 885 q 75 819 85 839 q 47 788 65 799 l 13 824 q 24 839 18 828 q 32 866 28 849 q 36 911 36 883 l -3 911 l -3 1040 l 94 1040 z "},"‘":{"ha":135,"x_min":42,"x_max":139,"o":"m 42 788 l 42 918 q 47 968 42 944 q 61 1008 51 988 q 89 1040 71 1029 l 122 1006 q 111 989 117 1000 q 103 963 107 979 q 100 918 100 946 l 139 918 l 139 788 l 42 788 z "},"\"":{"ha":294,"x_min":42,"x_max":240,"o":"m 42 1040 l 126 1040 l 118 900 l 103 828 l 65 828 l 50 900 l 42 1040 m 156 1040 l 240 1040 l 232 900 l 217 828 l 179 828 l 163 900 l 156 1040 z "},"'":{"ha":172,"x_min":42,"x_max":126,"o":"m 42 1040 l 126 1040 l 118 900 l 103 828 l 65 828 l 50 900 l 42 1040 l 42 1040 z "},">":{"ha":882,"x_min":125,"x_max":854,"o":"m 826 413 q 847 395 839 407 q 854 369 854 383 q 826 325 854 339 l 125 -1 l 125 106 l 692 369 l 125 632 l 125 739 l 826 413 l 826 413 z "},"<":{"ha":901,"x_min":42,"x_max":771,"o":"m 69 413 l 771 739 l 771 632 l 206 369 l 771 106 l 771 -1 l 69 325 q 42 369 42 339 q 49 395 42 383 q 69 413 57 407 z "},";":{"ha":192,"x_min":42,"x_max":139,"o":"m 139 525 l 42 525 l 42 656 l 139 656 l 139 525 m 139 131 l 139 0 q 133 -50 139 -26 q 119 -92 129 -71 q 92 -124 110 -112 l 57 -87 q 68 -71 63 -82 q 76 -44 72 -61 q 81 0 81 -28 l 42 0 l 42 131 l 139 131 z "},",":{"ha":135,"x_min":0,"x_max":97,"o":"m 97 131 l 97 0 q 92 -50 97 -26 q 78 -92 88 -71 q 50 -124 68 -112 l 15 -87 q 26 -71 21 -82 q 35 -44 31 -61 q 39 0 39 -28 l 0 0 l 0 131 l 97 131 z "},":":{"ha":192,"x_min":42,"x_max":139,"o":"m 139 131 l 139 0 l 42 0 l 42 131 l 139 131 m 139 656 l 139 525 l 42 525 l 42 656 l 139 656 z "},".":{"ha":192,"x_min":42,"x_max":139,"o":"m 139 131 l 139 0 l 42 0 l 42 131 l 139 131 l 139 131 z "},"·":{"ha":192,"x_min":42,"x_max":139,"o":"m 139 656 l 139 525 l 42 525 l 42 656 l 139 656 l 139 656 z "},"•":{"ha":268,"x_min":42,"x_max":222,"o":"m 222 590 q 196 526 222 553 q 132 500 169 500 q 68 526 94 500 q 42 590 42 553 q 68 654 42 628 q 132 681 94 681 q 196 654 169 681 q 222 590 222 628 z "},"‚":{"ha":140,"x_min":0,"x_max":97,"o":"m 97 131 l 97 0 q 92 -50 97 -26 q 78 -92 88 -71 q 50 -124 68 -112 l 15 -87 q 26 -71 21 -82 q 35 -44 31 -61 q 39 0 39 -28 l 0 0 l 0 131 l 97 131 z "},"„":{"ha":282,"x_min":0,"x_max":236,"o":"m 97 131 l 97 0 q 92 -50 97 -26 q 78 -92 88 -71 q 50 -124 68 -112 l 15 -87 q 26 -71 21 -82 q 35 -44 31 -61 q 39 0 39 -28 l 0 0 l 0 131 l 97 131 m 236 131 l 236 0 q 231 -50 236 -26 q 217 -92 226 -71 q 189 -124 207 -112 l 154 -87 q 165 -71 160 -82 q 174 -44 169 -61 q 178 0 178 -28 l 139 0 l 139 131 l 236 131 z "},"»":{"ha":538,"x_min":0,"x_max":492,"o":"m 233 401 q 246 369 246 388 q 233 336 246 351 l 0 79 l 0 222 l 132 369 l 0 515 l 0 660 l 233 401 m 479 401 q 492 369 492 388 q 479 336 492 351 l 246 79 l 246 222 l 378 369 l 246 515 l 246 660 l 479 401 z "},"›":{"ha":294,"x_min":0,"x_max":246,"o":"m 233 401 q 246 369 246 388 q 233 336 246 351 l 0 79 l 0 222 l 132 369 l 0 515 l 0 660 l 233 401 l 233 401 z "},"«":{"ha":531,"x_min":42,"x_max":533,"o":"m 300 401 l 533 660 l 533 515 l 401 369 l 533 222 l 533 79 l 300 336 q 288 369 288 351 q 300 401 288 388 m 54 401 l 288 660 l 288 515 l 156 369 l 288 222 l 288 79 l 54 336 q 42 369 42 351 q 54 401 42 388 z "},"‹":{"ha":288,"x_min":42,"x_max":288,"o":"m 54 401 l 288 660 l 288 515 l 156 369 l 288 222 l 288 79 l 54 336 q 42 369 42 351 q 54 401 42 388 z "},"ķ":{"ha":703,"x_min":97,"x_max":701,"o":"m 379 399 l 700 0 l 576 0 l 313 328 l 194 203 l 194 0 l 97 0 l 97 1082 l 194 1082 l 194 344 l 568 739 l 701 739 l 379 399 m 425 -65 q 481 -192 478 -137 q 464 -286 483 -247 q 396 -364 442 -332 l 347 -335 q 397 -240 394 -283 q 381 -165 399 -197 q 318 -100 360 -129 l 425 -65 z "},"ĳ":{"ha":524,"x_min":125,"x_max":422,"o":"m 422 739 l 422 49 q 311 -307 422 -171 l 281 -344 l 206 -283 l 236 -246 q 325 49 325 -136 l 325 739 l 422 739 m 422 951 l 325 951 l 325 1082 l 422 1082 l 422 951 m 222 0 l 125 0 l 125 739 l 222 739 l 222 0 m 222 951 l 125 951 l 125 1082 l 222 1082 l 222 951 z "},"Ĳ":{"ha":518,"x_min":125,"x_max":422,"o":"m 281 -344 l 206 -283 l 236 -246 q 325 49 325 -136 l 325 1040 l 422 1040 l 422 49 q 311 -307 422 -171 l 281 -344 m 125 1040 l 125 0 l 222 0 l 222 1040 l 125 1040 z "},"ĸ":{"ha":781,"x_min":125,"x_max":740,"o":"m 715 739 l 408 414 l 740 0 l 617 0 l 340 343 l 222 218 l 222 0 l 125 0 l 125 739 l 222 739 l 222 360 l 582 739 l 715 739 l 715 739 z "},"ħ":{"ha":997,"x_min":42,"x_max":879,"o":"m 526 753 q 786 653 693 753 q 879 372 879 553 l 879 0 l 782 0 l 782 372 q 717 583 782 511 q 526 656 651 656 q 338 583 403 656 q 272 372 272 511 l 272 0 l 175 0 l 175 829 l 42 829 l 42 926 l 175 926 l 175 1082 l 272 1082 l 272 926 l 696 926 l 696 829 l 272 829 l 272 656 q 381 728 317 703 q 526 753 444 753 z "},"ŀ":{"ha":492,"x_min":125,"x_max":444,"o":"m 125 1082 l 222 1082 l 222 0 l 125 0 l 125 1082 m 374 611 q 424 591 403 611 q 444 540 444 571 q 424 490 444 511 q 374 469 403 469 q 322 490 343 469 q 301 540 301 511 q 322 591 301 571 q 374 611 343 611 z "},"ł":{"ha":396,"x_min":42,"x_max":350,"o":"m 350 760 l 350 624 l 244 519 l 244 0 l 147 0 l 147 425 l 42 321 l 42 463 l 147 564 l 147 1082 l 244 1082 l 244 658 l 350 760 l 350 760 z "},"œ":{"ha":1513,"x_min":42,"x_max":1465,"o":"m 1086 751 q 1365 651 1265 751 q 1465 372 1465 551 l 1465 371 q 1451 337 1465 351 q 1417 322 1438 322 l 806 322 q 889 149 818 210 q 1085 89 960 89 q 1292 160 1217 89 l 1358 90 q 1085 -7 1257 -7 q 882 38 967 -7 q 753 165 797 82 q 623 38 707 82 q 421 -6 539 -6 q 142 94 242 -6 q 42 375 42 194 q 142 654 42 554 q 421 754 242 754 q 625 709 540 754 q 754 581 710 664 q 883 708 799 664 q 1086 751 968 751 m 421 92 q 632 164 560 92 q 704 375 704 236 q 632 585 704 513 q 421 657 560 657 q 211 585 283 657 q 139 375 139 513 q 211 164 139 236 q 421 92 283 92 m 1367 419 q 1283 595 1354 535 q 1086 656 1211 656 q 888 595 960 656 q 806 419 817 535 l 1367 419 z "},"ø":{"ha":889,"x_min":42,"x_max":846,"o":"m 754 615 q 824 374 824 521 q 724 93 824 193 q 444 -7 624 -7 q 309 11 369 -7 q 201 63 249 29 l 110 -29 l 42 39 l 133 131 q 64 374 64 225 q 164 653 64 553 q 444 754 264 754 q 578 736 518 754 q 686 685 639 718 l 778 775 l 846 707 l 754 615 m 161 374 q 203 201 161 268 l 615 614 q 444 657 546 657 q 233 584 306 657 q 161 374 161 511 m 728 374 q 685 546 728 475 l 272 133 q 444 90 338 90 q 655 163 582 90 q 728 374 728 235 z "},"ř":{"ha":492,"x_min":97,"x_max":450,"o":"m 97 372 l 97 0 l 194 0 l 194 372 q 260 583 194 510 q 450 656 325 656 l 450 753 q 190 652 283 753 q 97 372 97 551 m 274 989 l 308 1040 l 419 1040 l 313 878 q 274 857 300 857 q 235 878 247 857 l 128 1040 l 239 1040 l 274 989 z "},"ŗ":{"ha":506,"x_min":97,"x_max":463,"o":"m 110 372 q 203 652 110 551 q 463 753 296 753 l 463 656 q 272 583 338 656 q 207 372 207 510 l 207 0 l 110 0 l 110 372 m 204 -65 q 260 -192 257 -137 q 243 -286 263 -247 q 175 -364 221 -332 l 126 -335 q 176 -240 174 -283 q 160 -165 178 -197 q 97 -100 139 -129 l 204 -65 z "},"~":{"ha":499,"x_min":42,"x_max":453,"o":"m 325 863 q 274 875 297 863 q 225 907 251 888 q 211 917 218 913 q 197 929 204 922 q 160 940 174 944 q 137 924 146 938 q 126 908 128 911 l 42 949 q 49 963 43 951 q 67 987 56 974 q 95 1013 78 1000 q 135 1031 113 1025 q 184 1033 154 1036 q 250 1006 214 1031 q 267 993 260 999 q 282 982 275 988 q 307 963 296 971 q 325 956 318 956 q 346 963 331 956 q 393 999 361 971 l 453 926 q 381 877 413 892 q 325 863 350 863 z "},"^":{"ha":383,"x_min":42,"x_max":333,"o":"m 153 865 l 42 865 l 149 1029 q 188 1050 163 1050 q 226 1029 213 1050 l 333 865 l 222 865 l 188 918 l 153 865 z "},"Ł":{"ha":894,"x_min":42,"x_max":849,"o":"m 849 97 l 819 0 l 211 0 q 177 15 192 0 q 163 49 163 29 l 163 361 l 42 240 l 42 382 l 163 501 l 163 1040 l 260 1040 l 260 597 l 506 839 l 506 703 l 260 458 l 260 97 l 849 97 z "},"Ŀ":{"ha":774,"x_min":42,"x_max":726,"o":"m 726 97 l 697 0 l 90 0 q 56 15 71 0 q 42 49 42 29 l 42 1040 l 139 1040 l 139 97 l 726 97 m 346 469 q 295 490 315 469 q 275 540 275 510 q 295 590 275 569 q 346 611 315 611 q 396 590 375 611 q 417 540 417 569 q 396 490 417 510 q 346 469 375 469 z "},"̇":{"ha":231,"x_min":42,"x_max":183,"o":"m 113 469 q 63 490 83 469 q 42 540 42 510 q 63 590 42 569 q 113 611 83 611 q 163 590 142 611 q 183 540 183 569 q 163 490 183 510 q 113 469 142 469 z "},"Œ":{"ha":1326,"x_min":42,"x_max":1279,"o":"m 719 944 l 719 619 l 1176 619 l 1147 522 l 719 522 l 719 97 l 1279 97 l 1279 0 l 674 0 l 674 -1 q 624 -7 649 -6 q 571 -8 599 -8 q 348 28 446 -8 q 182 132 250 64 q 78 298 114 200 q 42 521 42 396 q 78 743 42 644 q 182 910 114 842 q 348 1014 250 978 q 571 1050 446 1050 q 683 1042 629 1050 l 683 1040 l 1279 1040 l 1279 944 l 719 944 m 139 521 q 249 199 139 310 q 571 88 360 88 q 597 88 585 88 q 624 90 610 89 l 624 951 q 597 952 610 951 q 571 953 585 953 q 249 842 360 953 q 139 521 139 731 z "},"Ø":{"ha":1189,"x_min":42,"x_max":1144,"o":"m 1014 874 q 1122 521 1122 738 q 1086 298 1122 396 q 982 132 1050 200 q 815 28 914 64 q 593 -8 717 -8 q 396 19 485 -8 q 240 99 307 46 l 110 -31 l 42 38 l 172 168 q 64 521 64 301 q 100 743 64 644 q 204 910 136 842 q 370 1014 272 978 q 593 1050 468 1050 q 946 942 810 1050 l 1075 1072 l 1144 1003 l 1014 874 m 161 521 q 240 236 161 342 l 876 872 q 593 953 768 953 q 272 842 382 953 q 161 521 161 731 m 1025 521 q 944 804 1025 696 l 308 168 q 593 88 418 88 q 915 199 804 88 q 1025 521 1025 310 z "},"Ř":{"ha":1022,"x_min":97,"x_max":976,"o":"m 851 0 l 514 419 l 194 419 l 194 0 l 97 0 l 97 990 q 112 1024 97 1010 q 146 1039 126 1039 l 590 1039 l 593 1039 q 710 1013 656 1038 q 807 946 765 988 q 872 848 849 904 q 896 729 896 792 q 876 619 896 671 q 820 527 856 568 q 738 459 785 486 q 635 424 690 432 l 976 0 l 851 0 m 194 517 l 586 517 q 668 533 629 517 q 736 579 707 550 q 782 647 765 608 q 799 729 799 685 q 782 813 799 774 q 736 880 765 851 q 668 925 707 908 q 586 942 629 942 l 194 942 l 194 517 m 571 1325 l 682 1325 l 575 1161 q 536 1140 563 1140 q 497 1161 510 1140 l 390 1325 l 503 1325 l 536 1272 l 571 1325 z "},"Ŗ":{"ha":1022,"x_min":97,"x_max":976,"o":"m 851 0 l 514 419 l 194 419 l 194 0 l 97 0 l 97 990 q 112 1024 97 1010 q 146 1039 126 1039 l 590 1039 l 593 1039 q 710 1013 656 1038 q 807 946 765 988 q 872 848 849 904 q 896 729 896 792 q 876 619 896 671 q 820 527 856 568 q 738 459 785 486 q 635 424 690 432 l 976 0 l 851 0 m 194 517 l 586 517 q 668 533 629 517 q 736 579 707 550 q 782 647 765 608 q 799 729 799 685 q 782 813 799 774 q 736 880 765 851 q 668 925 707 908 q 586 942 629 942 l 194 942 l 194 517 m 563 -65 q 618 -192 615 -137 q 601 -286 621 -247 q 533 -364 579 -332 l 485 -335 q 519 -285 508 -310 q 533 -240 531 -261 q 530 -199 535 -218 q 517 -165 525 -181 q 454 -100 496 -129 l 563 -65 z "},"§":{"ha":685,"x_min":42,"x_max":636,"o":"m 636 499 q 613 402 636 444 q 547 332 590 360 q 579 280 567 310 q 592 208 592 250 q 518 51 592 108 q 317 -6 444 -6 q 115 51 189 -6 q 42 208 42 108 l 139 208 q 155 149 139 172 q 197 113 171 126 q 254 95 222 100 q 317 90 286 90 q 378 95 347 90 q 435 113 410 100 q 478 149 461 126 q 494 208 494 172 q 487 250 494 233 q 458 280 479 267 q 401 304 438 293 q 307 328 365 315 q 213 349 260 338 q 127 384 165 361 q 65 444 89 407 q 42 542 42 482 q 63 642 42 600 q 128 713 83 685 q 97 763 108 735 q 86 832 86 792 q 160 990 86 932 q 361 1047 233 1047 q 563 990 489 1047 q 636 832 636 932 l 539 832 q 523 891 539 868 q 481 927 507 914 q 424 945 456 940 q 361 950 392 950 q 299 945 331 950 q 242 927 268 940 q 200 891 217 914 q 183 832 183 868 q 190 792 183 808 q 217 762 197 775 q 273 737 236 749 q 371 713 310 725 q 465 690 418 703 q 551 655 513 678 q 613 595 589 632 q 636 499 636 558 m 139 542 q 145 501 139 518 q 172 472 151 485 q 228 447 192 458 q 326 422 265 435 q 388 408 357 415 q 447 392 418 401 q 512 427 485 403 q 539 499 539 451 q 531 540 539 524 q 503 570 524 557 q 446 594 482 583 q 351 618 410 606 q 290 631 321 625 q 229 649 258 638 q 165 613 192 638 q 139 542 139 589 z "},"Þ":{"ha":901,"x_min":97,"x_max":857,"o":"m 478 900 q 757 800 657 900 q 857 521 857 700 q 757 240 857 340 q 478 140 657 140 l 194 140 l 194 0 l 97 0 l 97 1040 l 194 1040 l 194 900 l 478 900 m 478 238 q 688 310 615 238 q 761 521 761 382 q 688 731 761 658 q 478 804 615 804 l 194 804 l 194 238 l 478 238 z "},"þ":{"ha":901,"x_min":97,"x_max":857,"o":"m 478 753 q 757 653 657 753 q 857 374 857 553 q 757 93 857 193 q 478 -7 657 -7 q 315 20 386 -7 q 194 99 243 47 l 194 -306 l 97 -306 l 97 1040 l 194 1040 l 194 649 q 478 753 294 753 m 478 90 q 688 163 615 90 q 761 374 761 235 q 688 584 761 511 q 478 657 615 657 q 267 584 339 657 q 194 374 194 511 q 267 163 194 235 q 478 90 339 90 z "},"ð":{"ha":978,"x_min":42,"x_max":906,"o":"m 792 938 q 876 808 847 885 q 906 636 906 732 l 906 358 q 876 204 906 272 q 792 89 847 136 q 656 17 736 42 q 474 -8 575 -8 q 292 17 372 -8 q 156 89 211 42 q 71 204 100 136 q 42 358 42 272 q 71 513 42 444 q 156 629 100 582 q 292 701 211 676 q 474 726 372 726 q 668 697 583 726 q 808 613 753 668 l 808 636 q 785 776 808 721 q 722 868 761 832 l 589 738 l 589 878 l 636 922 q 592 938 614 932 q 547 946 569 943 l 586 1038 q 651 1020 621 1031 q 710 996 682 1010 l 835 1115 l 835 979 l 792 938 m 474 88 q 578 97 521 88 q 688 135 636 106 q 774 217 739 164 q 808 358 808 271 q 774 501 808 447 q 688 583 739 554 q 578 620 636 611 q 474 629 521 629 q 368 620 426 629 q 259 583 310 611 q 174 501 208 554 q 139 358 139 447 q 155 257 139 300 q 198 184 171 214 q 260 135 225 154 q 331 106 294 117 q 405 91 368 94 q 474 88 442 88 z "},"¥":{"ha":990,"x_min":42,"x_max":943,"o":"m 943 1040 l 617 569 l 872 569 l 872 472 l 550 472 l 540 460 l 540 376 l 872 376 l 872 279 l 540 279 l 540 0 l 444 0 l 444 279 l 113 279 l 113 376 l 444 376 l 444 464 l 438 472 l 113 472 l 113 569 l 371 569 l 42 1040 l 160 1040 l 486 569 l 499 569 l 825 1040 l 943 1040 l 943 1040 z "},"¢":{"ha":742,"x_min":42,"x_max":694,"o":"m 694 242 q 576 168 646 193 q 421 143 506 143 l 417 143 l 417 1 l 319 1 l 319 153 q 114 276 186 181 q 42 522 42 371 q 114 769 42 674 q 319 892 186 864 l 319 1043 l 417 1043 l 417 900 l 421 900 q 556 882 494 900 q 665 828 617 864 l 607 751 q 421 804 535 804 q 211 732 283 804 q 139 522 139 660 q 211 313 139 385 q 421 240 283 240 q 628 311 553 240 l 694 242 l 694 242 z "},"$":{"ha":838,"x_min":42,"x_max":793,"o":"m 426 564 q 560 533 494 550 q 677 485 625 515 q 761 405 729 454 q 793 276 793 356 q 707 76 793 150 q 465 -10 621 1 l 465 -108 l 368 -108 l 368 -10 q 127 76 213 1 q 42 276 42 150 l 139 276 q 167 176 139 214 q 238 118 196 139 q 329 91 281 97 q 417 85 378 85 q 504 91 456 85 q 595 118 553 97 q 667 176 638 139 q 696 276 696 214 q 681 348 696 319 q 633 398 667 376 q 544 435 600 419 q 407 469 489 451 q 274 501 340 483 q 157 549 208 518 q 74 629 106 579 q 42 758 42 679 q 127 959 42 885 q 368 1044 213 1033 l 368 1150 l 465 1150 l 465 1044 q 707 959 621 1033 q 793 758 793 885 l 696 758 q 667 858 696 821 q 595 916 638 896 q 504 942 553 936 q 417 949 456 949 q 329 942 378 949 q 238 916 281 936 q 167 858 196 896 q 139 758 139 821 q 153 686 139 715 q 202 635 168 657 q 291 597 236 614 q 426 564 346 581 z "},"¹":{"ha":199,"x_min":42,"x_max":156,"o":"m 156 547 l 78 547 l 78 1032 l 42 1001 l 42 1103 l 92 1144 q 133 1149 110 1160 q 156 1114 156 1139 l 156 547 z "},"²":{"ha":531,"x_min":42,"x_max":488,"o":"m 278 794 q 212 767 240 781 q 165 735 183 754 q 135 690 146 717 q 121 625 124 664 l 482 625 l 453 547 l 81 547 q 53 559 64 547 q 42 586 42 571 q 58 704 42 657 q 101 782 74 751 q 168 832 129 813 q 251 867 207 851 q 328 897 297 883 q 376 923 358 910 q 402 952 394 936 q 410 989 410 968 q 397 1037 410 1018 q 362 1066 383 1056 q 315 1081 340 1076 q 264 1085 289 1085 q 213 1081 239 1085 q 167 1066 188 1076 q 133 1037 146 1056 q 119 989 119 1018 l 42 989 q 101 1116 42 1069 q 264 1163 160 1163 q 428 1116 368 1163 q 488 989 488 1069 q 470 914 488 944 q 424 861 453 883 q 356 824 394 839 q 278 794 318 808 z "},"³":{"ha":575,"x_min":42,"x_max":529,"o":"m 446 883 q 529 733 529 835 q 465 595 529 644 q 286 546 401 546 q 75 628 136 546 q 42 733 42 671 l 119 733 q 136 674 119 699 q 194 636 156 650 q 286 622 232 622 q 339 626 310 622 q 393 642 368 631 q 435 676 418 654 q 453 733 453 697 q 435 791 453 769 q 393 824 418 813 q 339 840 368 836 q 286 843 310 843 l 276 843 l 247 921 l 290 921 q 334 924 310 921 q 380 935 358 926 q 416 960 401 944 q 431 1004 431 976 q 416 1047 431 1031 q 380 1073 401 1064 q 334 1085 358 1082 q 290 1088 310 1088 q 247 1085 271 1088 q 201 1073 222 1082 q 166 1047 181 1064 q 151 1004 151 1031 l 74 1004 q 132 1122 74 1079 q 290 1165 190 1165 q 451 1122 393 1165 q 508 1004 508 1079 q 446 883 508 926 z "},"ª":{"ha":538,"x_min":42,"x_max":496,"o":"m 494 669 q 492 595 496 633 q 457 525 488 557 q 267 472 406 472 q 208 474 246 472 q 133 490 171 476 q 69 531 96 503 q 42 611 42 558 q 63 693 42 664 q 117 735 85 722 q 189 751 150 749 q 263 753 228 753 l 410 753 q 387 799 401 781 q 353 827 372 817 q 312 841 333 838 q 269 844 290 844 q 171 817 210 844 l 125 879 q 269 922 181 922 q 434 862 374 922 q 494 697 494 801 l 494 669 m 401 579 q 416 613 414 592 q 417 668 418 635 l 417 676 l 263 676 q 182 673 211 676 q 139 661 153 669 q 122 640 125 653 q 119 611 119 628 q 124 589 119 600 q 144 569 129 578 q 189 554 160 560 q 267 549 218 549 q 401 579 374 549 z "},"º":{"ha":538,"x_min":42,"x_max":493,"o":"m 267 472 q 102 533 163 472 q 42 697 42 593 q 102 863 42 801 q 267 924 163 924 q 433 863 372 924 q 493 697 493 801 q 433 533 493 593 q 267 472 372 472 m 267 846 q 215 840 242 846 q 168 817 189 833 q 133 772 147 801 q 119 697 119 743 q 133 622 119 651 q 168 577 147 593 q 215 555 189 561 q 267 549 242 549 q 318 555 292 549 q 366 577 344 561 q 401 622 388 593 q 415 697 415 651 q 401 772 415 743 q 366 817 388 801 q 318 840 344 833 q 267 846 292 846 z "},"#":{"ha":901,"x_min":42,"x_max":858,"o":"m 832 621 l 674 621 l 619 421 l 779 421 l 753 324 l 594 324 l 508 0 l 411 0 l 497 324 l 297 324 l 211 0 l 115 0 l 200 324 l 42 324 l 67 421 l 226 421 l 279 621 l 121 621 l 146 718 l 306 718 l 390 1040 l 488 1040 l 401 718 l 601 718 l 688 1040 l 785 1040 l 699 718 l 858 718 l 832 621 m 524 421 l 576 621 l 376 621 l 324 421 l 524 421 z "},"(":{"ha":410,"x_min":97,"x_max":411,"o":"m 194 389 q 250 -23 194 151 q 411 -306 306 -197 l 283 -306 q 97 389 97 -57 q 283 1083 97 836 l 411 1083 q 250 801 306 975 q 194 389 194 626 z "},")":{"ha":390,"x_min":0,"x_max":314,"o":"m 217 389 q 161 801 217 626 q 0 1083 106 975 l 128 1083 q 314 389 314 836 q 128 -306 314 -57 l 0 -306 q 161 -23 106 -197 q 217 389 217 151 z "},"‰":{"ha":1599,"x_min":42,"x_max":1561,"o":"m 838 1040 l 164 1 l 279 1 l 953 1040 l 838 1040 m 265 497 q 185 512 225 497 q 113 559 144 526 q 61 644 81 592 q 42 774 42 697 q 61 903 42 850 q 113 988 81 956 q 185 1035 144 1021 q 265 1050 225 1050 q 345 1035 306 1050 q 417 988 385 1021 q 468 903 449 956 q 488 774 488 850 q 468 644 488 697 q 417 559 449 592 q 345 512 385 526 q 265 497 306 497 m 265 953 q 201 936 225 953 q 163 894 176 919 q 144 836 149 868 q 139 774 139 804 q 144 711 139 743 q 163 653 149 679 q 201 611 176 628 q 265 594 225 594 q 328 611 304 594 q 367 653 353 628 q 385 711 381 679 q 390 774 390 743 q 385 836 390 804 q 367 894 381 868 q 328 936 353 919 q 265 953 304 953 m 860 -8 q 780 6 819 -8 q 708 53 740 21 q 657 138 676 86 q 638 267 638 190 q 657 396 638 343 q 708 481 676 449 q 780 528 740 514 q 860 543 819 543 q 940 528 900 543 q 1013 481 981 514 q 1064 396 1044 449 q 1083 267 1083 343 q 1064 138 1083 190 q 1013 53 1044 86 q 940 6 981 21 q 860 -8 900 -8 m 860 447 q 796 431 821 447 q 757 388 771 414 q 738 329 743 361 q 733 267 733 297 q 738 204 733 236 q 757 147 743 172 q 796 104 771 121 q 860 88 821 88 q 924 104 899 88 q 963 147 949 121 q 981 204 976 172 q 986 267 986 236 q 981 329 986 297 q 963 388 976 361 q 924 431 949 414 q 860 447 899 447 m 1338 -8 q 1258 6 1297 -8 q 1186 53 1218 21 q 1135 138 1154 86 q 1115 267 1115 190 q 1135 396 1115 343 q 1186 481 1154 449 q 1258 528 1218 514 q 1338 543 1297 543 q 1418 528 1378 543 q 1490 481 1458 514 q 1542 396 1522 449 q 1561 267 1561 343 q 1542 138 1561 190 q 1490 53 1522 86 q 1418 6 1458 21 q 1338 -8 1378 -8 m 1338 447 q 1274 431 1299 447 q 1235 388 1249 414 q 1216 329 1221 361 q 1211 267 1211 297 q 1216 204 1211 236 q 1235 147 1221 172 q 1274 104 1249 121 q 1338 88 1299 88 q 1401 104 1376 88 q 1440 147 1426 121 q 1459 204 1454 172 q 1464 267 1464 236 q 1459 329 1464 297 q 1440 388 1454 361 q 1401 431 1426 414 q 1338 447 1376 447 z "},"±":{"ha":653,"x_min":42,"x_max":607,"o":"m 42 0 l 42 96 l 607 96 l 607 0 l 42 0 l 42 0 m 607 504 l 607 407 l 372 407 l 372 174 l 276 174 l 276 407 l 42 407 l 42 504 l 276 504 l 276 739 l 372 739 l 372 504 l 607 504 z "},"+":{"ha":653,"x_min":42,"x_max":607,"o":"m 607 504 l 607 407 l 372 407 l 372 174 l 276 174 l 276 407 l 42 407 l 42 504 l 276 504 l 276 739 l 372 739 l 372 504 l 607 504 l 607 504 z "},"×":{"ha":563,"x_min":42,"x_max":510,"o":"m 510 622 l 343 456 l 510 290 l 442 222 l 275 388 l 110 222 l 42 290 l 207 456 l 42 621 l 110 690 l 275 524 l 442 690 l 510 622 l 510 622 z "},"÷":{"ha":653,"x_min":42,"x_max":607,"o":"m 607 504 l 607 407 l 42 407 l 42 504 l 607 504 m 324 606 q 274 626 294 606 q 253 676 253 647 q 274 728 253 707 q 324 749 294 749 q 375 728 354 749 q 396 676 396 707 q 375 626 396 647 q 324 606 354 606 m 324 164 q 274 185 294 164 q 253 235 253 206 q 274 285 253 264 q 324 306 294 306 q 375 285 354 306 q 396 235 396 264 q 375 185 396 206 q 324 164 354 164 z "},"-":{"ha":653,"x_min":42,"x_max":607,"o":"m 42 417 l 607 417 l 607 321 l 42 321 l 42 417 l 42 417 z "},"­":{"ha":658,"x_min":42,"x_max":607,"o":"m 42 417 l 607 417 l 607 321 l 42 321 l 42 417 l 42 417 z "},"–":{"ha":717,"x_min":42,"x_max":674,"o":"m 42 417 l 674 417 l 674 321 l 42 321 l 42 417 l 42 417 z "},"—":{"ha":1189,"x_min":42,"x_max":1143,"o":"m 42 417 l 1143 417 l 1143 321 l 42 321 l 42 417 l 42 417 z "},"=":{"ha":653,"x_min":42,"x_max":607,"o":"m 42 532 l 607 532 l 607 436 l 42 436 l 42 532 m 42 307 l 607 307 l 607 211 l 42 211 l 42 307 z "},"/":{"ha":575,"x_min":-83,"x_max":660,"o":"m 551 1083 l 660 1083 l 25 -208 l -83 -208 l 551 1083 l 551 1083 z "},"\\":{"ha":582,"x_min":-83,"x_max":660,"o":"m 25 1083 l 660 -208 l 551 -208 l -83 1083 l 25 1083 l 25 1083 z "},"|":{"ha":332,"x_min":125,"x_max":222,"o":"m 222 -208 l 125 -208 l 125 1083 l 222 1083 l 222 -208 l 222 -208 z "},"¦":{"ha":326,"x_min":125,"x_max":222,"o":"m 222 585 l 125 585 l 125 1083 l 222 1083 l 222 585 l 222 585 m 222 -208 l 125 -208 l 125 290 l 222 290 l 222 -208 l 222 -208 z "},"[":{"ha":422,"x_min":125,"x_max":422,"o":"m 422 988 l 222 988 l 222 -208 l 422 -208 l 422 -306 l 125 -306 l 125 1083 l 422 1083 l 422 988 l 422 988 z "},"]":{"ha":410,"x_min":0,"x_max":297,"o":"m 0 988 l 0 1083 l 297 1083 l 297 -306 l 0 -306 l 0 -208 l 201 -208 l 201 988 l 0 988 l 0 988 z "},"_":{"ha":653,"x_min":42,"x_max":607,"o":"m 42 -32 l 607 -32 l 607 -128 l 42 -128 l 42 -32 l 42 -32 z "},"Ÿ":{"ha":990,"x_min":42,"x_max":943,"o":"m 943 1040 l 825 1040 l 493 560 l 160 1040 l 42 1040 l 444 464 l 444 0 l 540 0 l 540 460 l 943 1040 m 472 1235 q 452 1185 472 1206 q 404 1165 432 1165 q 355 1185 375 1165 q 335 1235 335 1206 q 355 1283 335 1263 q 404 1303 375 1303 q 452 1283 432 1303 q 472 1235 472 1263 m 650 1235 q 630 1185 650 1206 q 581 1165 610 1165 q 533 1185 553 1165 q 513 1235 513 1206 q 533 1283 513 1263 q 581 1303 553 1303 q 630 1283 610 1303 q 650 1235 650 1263 m 943 1040 l 825 1040 l 493 560 l 160 1040 l 42 1040 l 444 464 l 444 0 l 540 0 l 540 460 l 943 1040 z "},"Ž":{"ha":742,"x_min":32,"x_max":706,"o":"m 668 0 l 90 0 q 49 25 63 0 q 49 74 32 49 l 564 944 l 71 944 l 71 1040 l 649 1040 q 692 1017 679 1040 q 690 968 706 992 l 175 97 l 668 97 l 668 0 m 404 1325 l 515 1325 l 408 1161 q 369 1140 396 1140 q 331 1161 343 1140 l 224 1325 l 335 1325 l 369 1272 l 404 1325 z "},"Š":{"ha":838,"x_min":42,"x_max":793,"o":"m 451 1325 l 564 1325 l 456 1161 q 417 1140 443 1140 q 378 1161 390 1140 l 271 1325 l 383 1325 l 417 1272 l 451 1325 m 428 567 q 560 535 494 553 q 678 488 626 518 q 761 408 729 457 q 793 279 793 358 q 694 67 793 143 q 417 -8 594 -8 q 140 67 239 -8 q 42 279 42 143 l 139 279 q 167 179 139 217 q 238 121 196 142 q 329 94 281 100 q 417 88 378 88 q 504 94 456 88 q 595 121 553 100 q 667 179 638 142 q 696 279 696 217 q 682 351 696 322 q 635 401 668 381 q 546 439 601 422 q 407 472 490 456 q 274 503 340 486 q 157 551 208 521 q 74 632 106 582 q 42 761 42 682 q 140 974 42 897 q 417 1050 239 1050 q 694 974 594 1050 q 793 761 793 897 l 696 761 q 667 861 696 824 q 595 919 638 899 q 504 947 553 940 q 417 953 456 953 q 329 947 378 953 q 238 919 281 940 q 167 861 196 899 q 139 761 139 824 q 153 689 139 718 q 202 638 168 660 q 291 600 236 617 q 428 567 346 583 z "},"¤":{"ha":889,"x_min":42,"x_max":846,"o":"m 811 521 q 791 401 811 457 q 735 297 771 344 l 846 186 l 778 118 l 667 229 q 563 174 619 193 q 444 154 507 154 q 324 174 381 154 q 221 229 268 193 l 110 118 l 42 186 l 153 297 q 97 401 117 344 q 78 521 78 457 q 97 640 78 583 q 153 743 117 697 l 42 854 l 110 922 l 221 811 q 324 867 268 847 q 444 888 381 888 q 563 867 507 888 q 667 811 619 847 l 778 922 l 846 854 l 735 743 q 791 640 771 697 q 811 521 811 583 m 444 250 q 549 272 500 250 q 635 330 599 293 q 692 416 671 367 q 714 521 714 465 q 692 626 714 576 q 635 711 671 675 q 549 769 599 747 q 444 790 500 790 q 338 769 388 790 q 253 711 289 747 q 195 626 217 675 q 174 521 174 576 q 195 416 174 465 q 253 330 217 367 q 338 272 289 293 q 444 250 388 250 z "},"š":{"ha":639,"x_min":42,"x_max":590,"o":"m 326 419 q 228 444 265 432 q 172 470 192 457 q 145 500 151 483 q 139 540 139 517 q 155 599 139 576 q 197 635 171 622 q 254 652 222 647 q 317 657 286 657 q 378 652 347 657 q 435 635 410 647 q 478 599 461 622 q 494 540 494 576 l 590 540 q 517 697 590 640 q 317 754 443 754 q 115 697 189 754 q 42 540 42 640 q 65 443 42 481 q 127 383 89 406 q 213 347 165 360 q 306 325 260 335 q 401 302 364 313 q 458 278 438 292 q 487 249 479 265 q 494 207 494 232 q 478 148 494 171 q 435 112 461 125 q 378 94 410 99 q 317 89 347 89 q 254 94 286 89 q 197 112 222 99 q 155 148 171 125 q 139 207 139 171 l 42 207 q 115 50 42 107 q 317 -7 189 -7 q 517 50 443 -7 q 590 207 590 107 q 567 303 590 265 q 505 363 543 340 q 419 398 467 386 q 326 419 372 410 m 317 989 l 350 1040 l 463 1040 l 356 878 q 317 857 343 857 q 278 878 290 857 l 169 1040 l 282 1040 l 317 989 z "},"ž":{"ha":563,"x_min":32,"x_max":526,"o":"m 518 0 l 90 0 q 49 24 63 0 q 49 72 32 49 l 386 642 l 42 642 l 42 739 l 469 739 q 513 714 497 739 q 511 665 526 689 l 175 96 l 518 96 l 518 0 m 281 989 l 314 1040 l 426 1040 l 319 878 q 281 857 307 857 q 242 878 254 857 l 133 1040 l 246 1040 l 281 989 z "},"µ":{"ha":806,"x_min":97,"x_max":718,"o":"m 718 739 l 718 367 q 637 87 718 188 q 408 -14 556 -14 q 288 8 342 -14 q 194 71 235 31 l 194 -310 l 97 -281 l 97 739 l 194 739 l 194 367 q 201 278 194 326 q 231 185 208 229 q 297 113 254 142 q 408 83 339 83 q 520 113 478 83 q 585 185 563 142 q 615 278 608 229 q 622 367 622 326 l 622 739 l 718 739 z "},"…":{"ha":681,"x_min":42,"x_max":639,"o":"m 139 131 l 139 0 l 42 0 l 42 131 l 139 131 m 389 131 l 389 0 l 292 0 l 292 131 l 389 131 m 639 131 l 639 0 l 542 0 l 542 131 l 639 131 z "},"½":{"ha":1078,"x_min":42,"x_max":1032,"o":"m 822 211 q 901 240 863 225 q 968 278 939 256 q 1015 331 997 300 q 1032 406 1032 361 q 973 533 1032 486 q 810 579 914 579 q 647 533 706 579 q 588 406 588 486 l 664 406 q 677 453 664 435 q 712 483 690 472 q 759 497 733 493 q 810 501 785 501 q 860 497 835 501 q 908 483 886 493 q 942 453 929 472 q 956 406 956 435 q 948 369 956 385 q 922 340 940 353 q 874 313 904 326 q 797 283 843 300 q 714 249 753 268 q 647 199 675 229 q 603 122 619 168 q 588 4 588 75 q 599 -24 588 -12 q 626 -35 610 -35 l 997 -35 l 1026 42 l 665 42 q 680 107 669 81 q 710 152 690 133 q 757 184 729 171 q 822 211 785 197 m 211 472 l 135 472 l 135 956 l 99 926 l 99 1026 l 149 1068 q 189 1074 167 1083 q 211 1038 211 1063 l 211 472 m 714 1042 l 42 4 l 157 4 l 829 1042 l 714 1042 z "},"¾":{"ha":1201,"x_min":42,"x_max":1149,"o":"m 446 803 q 529 653 529 754 q 465 515 529 565 q 285 465 400 465 q 75 547 138 465 q 42 653 42 593 l 119 653 q 136 594 119 617 q 285 543 175 543 q 338 547 308 543 q 392 562 367 550 q 434 595 417 574 q 451 653 451 617 q 434 710 451 689 q 392 744 417 732 q 338 759 367 756 q 285 763 308 763 l 275 763 l 247 840 l 290 840 q 334 843 310 840 q 379 855 358 846 q 415 880 400 864 q 429 924 429 896 q 415 967 429 950 q 379 992 400 983 q 334 1004 358 1001 q 290 1007 310 1007 q 247 1004 271 1007 q 201 992 222 1001 q 165 967 179 983 q 150 924 150 950 l 74 924 q 132 1041 74 999 q 290 1083 190 1083 q 450 1041 393 1083 q 507 924 507 999 q 446 803 507 846 m 1083 -35 l 1007 -35 l 1007 107 l 731 107 q 703 118 715 107 q 692 146 692 129 l 692 153 q 700 176 692 165 l 1015 560 q 1058 571 1032 581 q 1083 535 1083 561 l 1083 183 l 1149 183 l 1119 107 l 1083 107 l 1083 -35 m 807 183 l 1007 183 l 1007 426 l 807 183 m 1058 1042 l 386 4 l 271 4 l 943 1042 l 1058 1042 z "},"¼":{"ha":963,"x_min":42,"x_max":919,"o":"m 211 472 l 135 472 l 135 956 l 99 926 l 99 1026 l 149 1068 q 189 1074 167 1083 q 211 1038 211 1063 l 211 472 m 856 -35 l 778 -35 l 778 107 l 501 107 q 474 118 486 107 q 463 146 463 129 l 463 153 q 472 176 463 164 l 786 560 q 829 571 804 581 q 856 535 856 561 l 856 183 l 919 183 l 890 107 l 856 107 l 856 -35 m 578 183 l 778 183 l 778 426 l 578 183 m 714 1042 l 42 4 l 157 4 l 829 1042 l 714 1042 z "},"†":{"ha":735,"x_min":42,"x_max":690,"o":"m 690 554 l 690 457 l 415 457 l 415 -553 l 318 -553 l 318 457 l 42 457 l 42 554 l 318 554 l 318 1040 l 415 1040 l 415 554 l 690 554 l 690 554 z "},"‡":{"ha":742,"x_min":42,"x_max":690,"o":"m 690 457 l 415 457 l 415 31 l 690 31 l 690 -67 l 415 -67 l 415 -553 l 318 -553 l 318 -67 l 42 -67 l 42 31 l 318 31 l 318 457 l 42 457 l 42 554 l 318 554 l 318 1040 l 415 1040 l 415 554 l 690 554 l 690 457 l 690 457 z "},"¶":{"ha":844,"x_min":42,"x_max":747,"o":"m 747 1040 l 747 -40 l 650 -40 l 650 1040 l 747 1040 m 42 660 q 142 940 42 840 q 422 1040 242 1040 l 519 1040 l 519 -40 l 422 -40 l 422 279 q 142 380 242 279 q 42 660 42 481 m 422 944 q 211 872 283 944 q 139 660 139 799 q 211 449 139 522 q 422 376 283 376 l 422 944 z "},"€":{"ha":933,"x_min":42,"x_max":886,"o":"m 886 43 l 842 25 q 644 -8 754 -8 q 320 101 443 -8 q 169 413 197 211 l 42 413 l 81 508 l 163 508 l 163 521 q 164 569 163 546 q 168 615 165 592 l 42 615 l 81 713 l 186 713 q 348 962 231 874 q 644 1050 465 1050 q 815 1025 736 1050 l 861 1010 l 832 918 l 785 932 q 644 953 722 953 q 416 892 506 953 q 288 713 326 831 l 814 713 l 775 615 l 265 615 q 261 569 263 593 q 260 521 260 546 l 260 508 l 736 508 l 699 413 l 267 413 q 388 171 292 254 q 644 88 483 88 q 807 115 732 88 l 851 133 l 886 43 z "},"£":{"ha":690,"x_min":33,"x_max":649,"o":"m 649 97 l 649 0 l 90 0 q 47 26 60 0 q 50 76 33 53 q 88 128 69 104 q 125 174 107 153 q 178 244 156 213 q 210 305 200 275 q 215 367 219 335 q 190 442 211 399 q 183 456 188 449 l 42 456 l 42 553 l 132 553 q 115 591 122 572 q 104 633 108 610 q 98 684 100 656 q 96 751 96 713 q 119 868 96 814 q 183 963 143 922 q 278 1026 224 1003 q 393 1050 332 1050 q 501 1030 450 1050 q 593 972 553 1010 l 629 939 l 528 900 q 465 938 500 925 q 393 951 431 951 q 315 935 351 951 q 252 892 279 919 q 209 829 225 865 q 193 751 193 793 q 195 684 193 710 q 202 639 197 658 q 216 602 207 619 q 238 561 225 585 l 242 553 l 538 553 l 538 456 l 292 456 q 315 353 314 399 q 300 266 315 307 q 258 188 285 225 q 201 113 232 151 q 189 97 197 108 l 649 97 z "},"©":{"ha":926,"x_min":42,"x_max":882,"o":"m 607 440 l 674 371 l 639 336 q 460 272 572 272 q 278 338 344 272 q 211 521 211 404 q 278 703 211 636 q 460 769 344 769 q 619 721 556 769 l 658 692 l 600 615 l 561 643 q 460 672 524 672 q 308 521 308 672 q 460 369 308 369 q 517 376 485 369 q 572 406 549 382 l 607 440 m 463 940 q 625 908 549 940 q 758 818 701 875 q 849 685 815 761 q 882 521 882 608 q 849 357 882 433 q 758 224 815 281 q 625 133 701 167 q 463 100 549 100 q 299 133 375 100 q 165 224 222 167 q 75 357 108 281 q 42 521 42 433 q 75 685 42 608 q 165 818 108 761 q 299 908 222 875 q 463 940 375 940 m 463 197 q 588 223 529 197 q 690 292 646 249 q 759 395 733 336 q 785 521 785 454 q 759 647 785 588 q 690 749 733 706 q 588 819 646 793 q 463 844 529 844 q 337 819 396 844 q 234 749 278 793 q 165 647 190 706 q 139 521 139 588 q 165 395 139 454 q 234 292 190 336 q 337 223 278 249 q 463 197 396 197 z "},"®":{"ha":671,"x_min":42,"x_max":625,"o":"m 333 1050 q 447 1027 393 1050 q 540 965 500 1004 q 602 872 579 925 q 625 758 625 818 q 602 644 625 697 q 540 552 579 592 q 447 490 500 513 q 333 467 393 467 q 219 490 272 467 q 127 552 167 513 q 65 644 88 592 q 42 758 42 697 q 65 872 42 818 q 127 965 88 925 q 219 1027 167 1004 q 333 1050 272 1050 m 333 544 q 428 565 383 544 l 351 696 l 274 696 l 274 553 q 333 544 303 544 m 371 774 q 399 785 388 774 q 411 815 411 797 q 399 844 411 832 q 371 857 388 857 l 274 857 l 274 774 l 371 774 m 490 613 q 533 678 518 640 q 547 758 547 715 q 531 842 547 803 q 485 910 514 881 q 417 956 456 939 q 333 972 378 972 q 250 956 289 972 q 182 910 211 939 q 136 842 153 881 q 119 758 119 803 q 140 665 119 708 q 197 593 161 622 l 197 896 q 208 922 197 911 q 236 933 219 933 l 372 933 l 374 933 q 456 898 422 932 q 489 815 489 864 q 473 756 489 783 q 431 714 457 729 l 490 613 z "},"™":{"ha":994,"x_min":42,"x_max":953,"o":"m 42 1040 l 414 1040 l 414 943 l 276 943 l 276 543 l 179 543 l 179 943 l 42 943 l 42 1040 m 917 1047 q 942 1031 932 1043 q 953 1001 953 1018 l 953 543 l 856 543 l 856 825 l 753 653 q 735 635 746 642 q 711 629 724 629 q 688 635 699 629 q 669 653 676 642 l 567 825 l 567 543 l 469 543 l 469 1001 q 506 1047 469 1038 q 536 1047 521 1053 q 560 1026 551 1040 l 711 772 l 863 1026 q 886 1047 871 1040 q 917 1047 901 1053 z "},"¯":{"ha":653,"x_min":42,"x_max":607,"o":"m 42 1083 l 607 1083 l 607 988 l 42 988 l 42 1083 l 42 1083 z "},"¬":{"ha":658,"x_min":42,"x_max":607,"o":"m 42 504 l 607 504 l 607 268 l 511 268 l 511 407 l 42 407 l 42 504 l 42 504 z "},"ß":{"ha":894,"x_min":125,"x_max":854,"o":"m 853 276 q 844 199 854 236 q 819 131 835 163 q 783 76 804 100 q 742 38 763 51 q 663 2 704 13 q 582 -8 622 -8 q 447 16 511 -8 q 342 71 382 40 l 400 149 q 457 116 422 132 q 531 93 492 100 q 611 90 571 86 q 688 118 651 94 q 710 140 697 125 q 733 176 722 156 q 749 222 743 196 q 756 275 756 247 q 636 458 756 386 q 569 496 599 482 q 518 519 539 510 q 472 543 492 531 q 447 583 451 556 q 461 633 442 611 q 524 692 481 656 l 532 699 q 591 778 575 735 q 592 863 607 822 q 531 928 576 904 q 421 953 486 953 q 310 928 350 953 q 251 872 271 903 q 227 815 232 842 q 222 783 222 788 l 222 0 l 125 0 l 125 783 l 125 785 q 140 865 126 819 q 188 952 154 911 q 278 1022 222 993 q 421 1050 335 1050 q 586 1008 517 1050 q 683 896 656 967 q 685 754 708 826 q 596 625 663 682 l 586 618 q 578 610 582 614 q 569 603 574 607 q 622 579 592 593 q 689 542 651 565 q 771 475 739 510 q 821 406 803 440 q 846 338 839 371 q 853 276 853 304 z "},"ƒ":{"ha":710,"x_min":42,"x_max":667,"o":"m 618 953 q 438 876 511 953 q 342 664 364 799 l 317 510 l 567 510 l 528 413 l 301 413 l 203 -199 q 150 -362 188 -290 q 57 -483 113 -435 q 50 -420 54 -451 q 42 -357 46 -389 q 107 -183 90 -287 l 203 413 l 68 413 l 107 510 l 218 510 l 246 679 q 292 832 260 764 q 374 949 325 900 q 485 1024 422 997 q 618 1050 547 1050 l 667 1050 l 618 953 l 618 953 z "},"°":{"ha":364,"x_min":42,"x_max":315,"o":"m 178 892 q 81 931 121 892 q 42 1028 42 971 q 52 1081 42 1056 q 81 1124 63 1106 q 125 1154 100 1143 q 178 1165 150 1165 q 232 1154 207 1165 q 276 1124 257 1143 q 305 1081 294 1106 q 315 1028 315 1056 q 276 931 315 971 q 178 892 236 892 m 178 1088 q 137 1070 154 1088 q 119 1028 119 1053 q 137 986 119 1004 q 178 968 154 968 q 220 986 203 968 q 238 1028 238 1004 q 220 1070 238 1053 q 178 1088 203 1088 z "},"{":{"ha":531,"x_min":125,"x_max":528,"o":"m 349 546 q 333 452 349 490 q 294 390 318 414 q 333 327 318 365 q 349 233 349 289 l 349 -32 q 353 -94 349 -62 q 373 -150 358 -125 q 413 -191 388 -175 q 479 -207 439 -207 l 528 -207 l 528 -304 l 479 -304 q 313 -231 374 -304 q 251 -32 251 -158 l 251 233 q 174 342 251 342 l 125 342 l 125 438 l 174 438 q 251 546 251 438 l 251 813 q 313 1011 251 939 q 479 1083 374 1083 l 528 1083 l 528 988 l 479 988 q 413 972 439 988 q 373 930 388 956 q 353 873 358 904 q 349 813 349 842 l 349 546 z "},"}":{"ha":506,"x_min":0,"x_max":403,"o":"m 179 813 q 174 873 179 842 q 155 930 169 904 q 115 972 140 956 q 49 988 89 988 l 0 988 l 0 1083 l 49 1083 q 215 1011 154 1083 q 276 813 276 939 l 276 546 q 354 438 276 438 l 403 438 l 403 342 l 354 342 q 276 233 276 342 l 276 -32 q 215 -231 276 -158 q 49 -304 154 -304 l 0 -304 l 0 -207 l 49 -207 q 115 -191 89 -207 q 155 -150 140 -175 q 174 -94 169 -125 q 179 -32 179 -62 l 179 233 q 194 327 179 289 q 233 390 210 365 q 194 452 210 414 q 179 546 179 490 l 179 813 z "}}}
